<svg xmlns="http://www.w3.org/2000/svg" width="327.175" height="381.897" viewBox="0 0 306.727 358.029"><path d="M301.35 219.648a172.451 126.994 49.366 0 1-147.987 102.53A172.451 126.994 49.366 0 1 5.376 128.734a172.451 126.994 49.366 0 1 147.987-102.53 172.451 126.994 49.366 0 1 147.988 193.444z" fill="#56ff7c" stroke="#b0fdd2" stroke-width="10.752"/><path d="M90.067 191.306l-.126 90.688c14.5 14.402 28.746 18.977 43.246 26.823 21.162 11.452 68.366-1.788 79.88-11.678 11.661-10.038 17.492-25.317 17.492-45.835 0-20.666-5.83-35.87-17.492-45.613-11.514-9.89-29.302-14.836-53.364-14.836zm0-135.955v99.641l64.1-.45c21.848-.154 38.086-4.06 48.714-12.179 10.776-8.266 16.164-20.814 16.164-37.642 0-16.68-5.388-29.154-16.164-37.42-10.628-8.267-26.866-12.4-48.713-12.4zM133.32 15.43l24.168 2.715c33.886 3.808 60.375 7.086 78.827 21.257 18.452 14.171 27.678 34.32 27.678 60.449 0 20.223-4.724 36.313-14.171 48.27s-23.323 19.412-41.628 22.364c21.995 4.724 39.045 14.614 51.15 29.67 12.251 14.91 18.377 33.584 18.377 56.021 0 29.523-10.037 66.344-30.113 82.434-46.221 32.666-114.288 13.776-114.288 13.776z" font-weight="400" font-size="347.617" font-family="sans-serif" letter-spacing="0" word-spacing="0" fill="#fff"/></svg>