<?xml version="1.0" encoding="utf-8"?>
<!-- Generator: Adobe Illustrator 19.0.0, SVG Export Plug-In . SVG Version: 6.00 Build 0)  -->
<svg version="1.1" id="Ñëîé_1" xmlns="http://www.w3.org/2000/svg" xmlns:xlink="http://www.w3.org/1999/xlink" x="0px" y="0px"
	 viewBox="0 0 260.8 155" style="enable-background:new 0 0 260.8 155;" xml:space="preserve">
<style type="text/css">
	.st0{clip-path:url(#SVGID_2_);fill:#751480;}
	.st1{clip-path:url(#SVGID_2_);fill:#761580;}
	.st2{clip-path:url(#SVGID_2_);fill:#771680;}
	.st3{clip-path:url(#SVGID_2_);fill:#781780;}
	.st4{clip-path:url(#SVGID_2_);fill:#791881;}
	.st5{clip-path:url(#SVGID_2_);fill:#7A1881;}
	.st6{clip-path:url(#SVGID_2_);fill:#7A1981;}
	.st7{clip-path:url(#SVGID_2_);fill:#7B1981;}
	.st8{clip-path:url(#SVGID_2_);fill:#7C1A81;}
	.st9{clip-path:url(#SVGID_2_);fill:#7C1B81;}
	.st10{clip-path:url(#SVGID_2_);fill:#7D1B81;}
	.st11{clip-path:url(#SVGID_2_);fill:#7E1C81;}
	.st12{clip-path:url(#SVGID_2_);fill:#7F1D81;}
	.st13{clip-path:url(#SVGID_2_);fill:#7F1D82;}
	.st14{clip-path:url(#SVGID_2_);fill:#801E82;}
	.st15{clip-path:url(#SVGID_2_);fill:#811F82;}
	.st16{clip-path:url(#SVGID_2_);fill:#822082;}
	.st17{clip-path:url(#SVGID_2_);fill:#832082;}
	.st18{clip-path:url(#SVGID_2_);fill:#832182;}
	.st19{clip-path:url(#SVGID_2_);fill:#842282;}
	.st20{clip-path:url(#SVGID_2_);fill:#852282;}
	.st21{clip-path:url(#SVGID_2_);fill:#862382;}
	.st22{clip-path:url(#SVGID_2_);fill:#872483;}
	.st23{clip-path:url(#SVGID_2_);fill:#872583;}
	.st24{clip-path:url(#SVGID_2_);fill:#882683;}
	.st25{clip-path:url(#SVGID_2_);fill:#892683;}
	.st26{clip-path:url(#SVGID_2_);fill:#8A2783;}
	.st27{clip-path:url(#SVGID_2_);fill:#8B2883;}
	.st28{clip-path:url(#SVGID_2_);fill:#8C2983;}
	.st29{clip-path:url(#SVGID_2_);fill:#8D2A83;}
	.st30{clip-path:url(#SVGID_2_);fill:#8E2A84;}
	.st31{clip-path:url(#SVGID_2_);fill:#8F2B84;}
	.st32{clip-path:url(#SVGID_2_);fill:#8F2C84;}
	.st33{clip-path:url(#SVGID_2_);fill:#902D84;}
	.st34{clip-path:url(#SVGID_2_);fill:#912E84;}
	.st35{clip-path:url(#SVGID_2_);fill:#922F84;}
	.st36{clip-path:url(#SVGID_2_);fill:#932F84;}
	.st37{clip-path:url(#SVGID_2_);fill:#943085;}
	.st38{clip-path:url(#SVGID_2_);fill:#953185;}
	.st39{clip-path:url(#SVGID_2_);fill:#963285;}
	.st40{clip-path:url(#SVGID_2_);fill:#973385;}
	.st41{clip-path:url(#SVGID_2_);fill:#983485;}
	.st42{clip-path:url(#SVGID_2_);fill:#993585;}
	.st43{clip-path:url(#SVGID_2_);fill:#9A3585;}
	.st44{clip-path:url(#SVGID_2_);fill:#9B3685;}
	.st45{clip-path:url(#SVGID_2_);fill:#9C3786;}
	.st46{clip-path:url(#SVGID_2_);fill:#9D3886;}
	.st47{clip-path:url(#SVGID_2_);fill:#9E3986;}
	.st48{clip-path:url(#SVGID_2_);fill:#9F3A86;}
	.st49{clip-path:url(#SVGID_2_);fill:#A03B86;}
	.st50{clip-path:url(#SVGID_2_);fill:#A13C86;}
	.st51{clip-path:url(#SVGID_2_);fill:#A23D87;}
	.st52{clip-path:url(#SVGID_2_);fill:#A33E87;}
	.st53{clip-path:url(#SVGID_2_);fill:#A43F87;}
	.st54{clip-path:url(#SVGID_2_);fill:#A54087;}
	.st55{clip-path:url(#SVGID_2_);fill:#A64087;}
	.st56{clip-path:url(#SVGID_2_);fill:#A74187;}
	.st57{clip-path:url(#SVGID_2_);fill:#A84287;}
	.st58{clip-path:url(#SVGID_2_);fill:#A94388;}
	.st59{clip-path:url(#SVGID_2_);fill:#AA4488;}
	.st60{clip-path:url(#SVGID_2_);fill:#AB4588;}
	.st61{clip-path:url(#SVGID_2_);fill:#AC4688;}
	.st62{clip-path:url(#SVGID_2_);fill:#AD4788;}
	.st63{clip-path:url(#SVGID_2_);fill:#AE4888;}
	.st64{clip-path:url(#SVGID_2_);fill:#AF4988;}
	.st65{clip-path:url(#SVGID_2_);fill:#B04A89;}
	.st66{clip-path:url(#SVGID_2_);fill:#B24B89;}
	.st67{clip-path:url(#SVGID_2_);fill:#B34C89;}
	.st68{clip-path:url(#SVGID_2_);fill:#B44D89;}
	.st69{clip-path:url(#SVGID_2_);fill:#B54E89;}
	.st70{clip-path:url(#SVGID_2_);fill:#B64F89;}
	.st71{clip-path:url(#SVGID_2_);fill:#B7508A;}
	.st72{clip-path:url(#SVGID_2_);fill:#B8518A;}
	.st73{clip-path:url(#SVGID_2_);fill:#B9528A;}
	.st74{clip-path:url(#SVGID_2_);fill:#BA538A;}
	.st75{clip-path:url(#SVGID_2_);fill:#BB548A;}
	.st76{clip-path:url(#SVGID_2_);fill:#BD558A;}
	.st77{clip-path:url(#SVGID_2_);fill:#BE568B;}
	.st78{clip-path:url(#SVGID_2_);fill:#BF578B;}
	.st79{clip-path:url(#SVGID_2_);fill:#C0588B;}
	.st80{clip-path:url(#SVGID_2_);fill:#C1598B;}
	.st81{clip-path:url(#SVGID_2_);fill:#C25A8B;}
	.st82{clip-path:url(#SVGID_2_);fill:#C35B8B;}
	.st83{clip-path:url(#SVGID_2_);fill:#C45C8C;}
	.st84{clip-path:url(#SVGID_2_);fill:#C65D8C;}
	.st85{clip-path:url(#SVGID_2_);fill:#C75E8C;}
	.st86{clip-path:url(#SVGID_2_);fill:#C85F8C;}
	.st87{clip-path:url(#SVGID_2_);fill:#C9608C;}
	.st88{clip-path:url(#SVGID_2_);fill:#CA618C;}
	.st89{clip-path:url(#SVGID_2_);fill:#CB628D;}
	.st90{clip-path:url(#SVGID_2_);fill:#CC638D;}
	.st91{clip-path:url(#SVGID_2_);fill:#CE648D;}
	.st92{clip-path:url(#SVGID_2_);fill:#CF668D;}
	.st93{clip-path:url(#SVGID_2_);fill:#D0678D;}
	.st94{clip-path:url(#SVGID_2_);fill:#D1688D;}
	.st95{clip-path:url(#SVGID_2_);fill:#D2698E;}
	.st96{clip-path:url(#SVGID_2_);fill:#D36A8E;}
	.st97{clip-path:url(#SVGID_2_);fill:#D56B8E;}
	.st98{clip-path:url(#SVGID_2_);fill:#D66C8E;}
	.st99{clip-path:url(#SVGID_2_);fill:#D76D8E;}
	.st100{clip-path:url(#SVGID_2_);fill:#D86E8E;}
	.st101{clip-path:url(#SVGID_2_);fill:#D96F8F;}
	.st102{clip-path:url(#SVGID_2_);fill:#DB708F;}
	.st103{clip-path:url(#SVGID_2_);fill:#DC718F;}
	.st104{clip-path:url(#SVGID_2_);fill:#DD728F;}
	.st105{clip-path:url(#SVGID_2_);fill:#DE748F;}
	.st106{clip-path:url(#SVGID_2_);fill:#DF758F;}
	.st107{clip-path:url(#SVGID_2_);fill:#E17690;}
	.st108{clip-path:url(#SVGID_2_);fill:#E27790;}
	.st109{clip-path:url(#SVGID_2_);fill:#E37890;}
	.st110{clip-path:url(#SVGID_2_);fill:#E47990;}
	.st111{clip-path:url(#SVGID_2_);fill:#E57A90;}
	.st112{clip-path:url(#SVGID_2_);fill:#E77B90;}
	.st113{clip-path:url(#SVGID_2_);fill:#E87C91;}
	.st114{clip-path:url(#SVGID_2_);fill:#E97D91;}
	.st115{clip-path:url(#SVGID_2_);fill:#EA7F91;}
	.st116{clip-path:url(#SVGID_2_);fill:#EC8091;}
	.st117{clip-path:url(#SVGID_2_);fill:#ED8191;}
	.st118{clip-path:url(#SVGID_2_);fill:#EE8292;}
	.st119{clip-path:url(#SVGID_2_);fill:#EF8392;}
	.st120{clip-path:url(#SVGID_2_);fill:#F18492;}
	.st121{clip-path:url(#SVGID_2_);fill:#F28592;}
	.st122{clip-path:url(#SVGID_2_);fill:#F38692;}
	.st123{clip-path:url(#SVGID_2_);fill:#F48892;}
	.st124{clip-path:url(#SVGID_2_);fill:#F58993;}
	.st125{clip-path:url(#SVGID_2_);fill:#F78A93;}
	.st126{clip-path:url(#SVGID_2_);fill:#F88B93;}
	.st127{fill:url(#SVGID_3_);}
	.st128{fill:url(#SVGID_4_);}
	.st129{fill:url(#SVGID_5_);}
	.st130{fill:#FCC29F;}
	.st131{fill:#FBA999;}
</style>
<g>
	<g>
		<g>
			<defs>
				<polygon id="SVGID_1_" points="80.2,155 260.8,0 96,113.3 				"/>
			</defs>
			<clipPath id="SVGID_2_">
				<use xlink:href="#SVGID_1_"  style="overflow:visible;"/>
			</clipPath>
			<rect x="80.2" class="st0" width="180.6" height="155"/>
			<path class="st0" d="M79.2,134.9V56.6h-6.1c12.3-24.1,30.2-45.8,52.3-64V-1h136.4v157H79.2V134.9z"/>
			<path class="st0" d="M79.2,134.9V57.2h-4.4c12.3-23.9,30-45.4,51.9-63.5V-1h135.1v157H79.2V134.9z"/>
			<path class="st1" d="M79.2,134.9V57.8h-2.7c12.2-23.7,29.8-45.1,51.5-63V-1h133.7v157H79.2V134.9z"/>
			<path class="st1" d="M79.2,134.9V58.4h-0.9c12.1-23.5,29.5-44.7,51.1-62.5V-1h132.4v157H79.2V134.9z"/>
			<path class="st2" d="M79.2,134.9V95.6V67.8h-3.5c1.3-3,2.7-5.9,4.2-8.9c12-23.3,29.3-44.4,50.7-62V-1h131.1v157H79.2V134.9z"/>
			<path class="st2" d="M79.2,134.9v-39V77.3h-5.4c2.3-6.1,4.9-12,7.9-17.8C93.6,36.4,110.8,15.5,132-2v1h129.8v157H79.2V134.9z"/>
			<path class="st3" d="M79.2,134.9V96.2V77.8h-3.6c2.3-6,4.9-11.9,7.8-17.6c11.8-23,28.8-43.7,49.9-61.1c2.6-2.2,5.3-4.3,8.1-6.4
				V-1h120.4v157H79.2V134.9z"/>
			<path class="st3" d="M79.2,134.9V96.5V78.3h-1.8c2.2-6,4.8-11.8,7.8-17.5c11.7-22.8,28.6-43.3,49.5-60.6c2.6-2.2,5.3-4.3,8-6.3
				V-1h119.1v157H79.2V134.9z"/>
			<path class="st4" d="M79.2,134.9V96.8h-5.7c3.1-12.3,7.6-24.2,13.3-35.5c11.6-22.6,28.4-43,49.1-60.1c2.6-2.1,5.2-4.2,8-6.3v4
				h117.9v157H79.2V134.9z"/>
			<path class="st5" d="M79.2,134.9V97.1h-3.9c3-12.2,7.5-24,13.2-35.2c11.5-22.4,28.1-42.6,48.7-59.6c2.6-2.1,5.2-4.2,7.9-6.2V-1
				h116.6v157H79.2V134.9z"/>
			<path class="st6" d="M72.6,134.9c0-51.3,25.2-97.8,66-131.5c2.5-2.1,5.2-4.2,7.8-6.2V-1h115.4v157H79.2v-21.1H72.6z"/>
			<path class="st7" d="M74.5,134.9c0-50.9,25-97,65.5-130.4c5.1-4.2,10.4-8.1,15.9-11.9V-1h106v157H79.2v-21.1H74.5z"/>
			<path class="st8" d="M76.3,134.9c0-50.5,24.8-96.2,64.9-129.3c5-4.1,10.3-8.1,15.7-11.8V-1h104.8v157H79.2v-21.1H76.3z"/>
			<path class="st9" d="M78.2,134.9c0-50.1,24.6-95.4,64.4-128.2c5-4.1,10.2-8,15.6-11.7v4h103.7v157H80.7v6.6c-0.6-3-1-6-1.4-9.1
				C78.6,147.4,78.2,141.2,78.2,134.9z"/>
			<path class="st10" d="M80,134.9c0-49.7,24.4-94.6,63.8-127.1c4.9-4.1,10.1-7.9,15.5-11.6V-1h102.5v157H82.6v6.3c-0.6-3-1-6-1.4-9
				C80.4,147.3,80,141.1,80,134.9z"/>
			<path class="st11" d="M81.9,134.9c0-49.2,24.2-93.8,63.3-126.1c4.9-4,10-7.9,15.3-11.5V-1h101.3v157H84.4v6.1
				c-0.5-3-1-5.9-1.4-8.9C82.3,147.2,81.9,141.1,81.9,134.9z"/>
			<path class="st12" d="M83.8,134.9c0-48.8,24-93,62.7-125c4.8-4,9.9-7.8,15.2-11.4V-1h100.1v157H86.2v5.8c-0.5-2.9-1-5.9-1.4-8.8
				C84.1,147,83.8,141,83.8,134.9z"/>
			<path class="st13" d="M85.6,134.9c0-48.4,23.8-92.2,62.2-123.9c4.8-4,9.8-7.7,15.1-11.3c2.6-1.8,5.3-3.5,8-5.2V-1h90.9v157H88.1
				v5.6c-0.5-2.9-1-5.8-1.4-8.8C86,146.9,85.6,141,85.6,134.9z"/>
			<path class="st14" d="M87.5,134.9c0-48,23.6-91.4,61.6-122.8c4.8-3.9,9.7-7.7,14.9-11.2c2.6-1.8,5.3-3.5,8-5.2V-1h89.8v157H89.9
				v5.4c-0.5-2.9-1-5.8-1.3-8.7C87.9,146.8,87.5,140.9,87.5,134.9z"/>
			<path class="st15" d="M89.4,134.9c0-47.5,23.4-90.6,61.1-121.7c9.4-7.8,19.8-14.8,30.9-21V-1h80.5v157H91.8v5.1
				c-0.5-2.8-1-5.7-1.3-8.6C89.7,146.7,89.4,140.9,89.4,134.9z"/>
			<path class="st16" d="M91.2,134.9c0-47.1,23.1-89.8,60.6-120.6c9.4-7.7,19.6-14.7,30.6-20.8V-1h79.4v157H93.6v4.9
				c-0.5-2.8-1-5.7-1.3-8.5C91.6,146.6,91.2,140.8,91.2,134.9z"/>
			<path class="st17" d="M93.1,134.9c0-46.7,22.9-88.9,60-119.5c9.3-7.6,19.4-14.6,30.3-20.6V-1h78.4v157H95.4v4.7
				c-0.5-2.8-1-5.6-1.3-8.5C93.4,146.5,93.1,140.8,93.1,134.9z"/>
			<path class="st18" d="M94.9,134.9c0-46.3,22.7-88.1,59.5-118.4c9.2-7.6,19.2-14.4,30-20.5v3h77.4v157H97.3v4.4
				c-0.5-2.8-0.9-5.6-1.3-8.4C95.3,146.4,94.9,140.7,94.9,134.9z"/>
			<path class="st19" d="M96.8,134.9c0-45.8,22.5-87.3,58.9-117.4c9.1-7.5,19.1-14.3,29.8-20.3V-1h76.3v157H99.1v4.2
				c-0.5-2.7-0.9-5.5-1.3-8.3C97.2,146.3,96.8,140.6,96.8,134.9z"/>
			<path class="st20" d="M98.7,134.9c0-45.4,22.3-86.5,58.4-116.3c9-7.4,18.9-14.2,29.5-20.1V-1h75.3v157H101v4
				c-0.5-2.7-0.9-5.5-1.3-8.2C99,146.2,98.7,140.6,98.7,134.9z"/>
			<path class="st21" d="M100.5,134.9c0-45,22.1-85.7,57.8-115.2c8.9-7.4,18.7-14,29.2-19.9c2.6-1.5,5.3-2.9,8-4.2V-1h66.2v157h-159
				v3.7c-0.5-2.7-0.9-5.4-1.3-8.2C100.9,146.1,100.5,140.5,100.5,134.9z"/>
			<path class="st22" d="M102.4,134.9c0-44.6,21.9-84.9,57.3-114.1c8.8-7.3,18.5-13.9,28.9-19.7c5.2-2.9,10.6-5.6,16.1-8.1v6h57.1
				v157H104.7v3.5c-0.5-2.7-0.9-5.4-1.2-8.1C102.7,146,102.4,140.5,102.4,134.9z"/>
			<path class="st23" d="M104.3,134.9c0-44.1,21.7-84.1,56.7-113c8.8-7.2,18.4-13.8,28.7-19.5c5.2-2.9,10.5-5.5,16-8V-1h56.2v157
				H106.5v3.3c-0.5-2.6-0.9-5.3-1.2-8C104.6,145.9,104.3,140.4,104.3,134.9z"/>
			<path class="st24" d="M106.1,134.9c0-43.7,21.5-83.3,56.2-111.9c8.7-7.2,18.2-13.6,28.4-19.3c5.1-2.8,10.4-5.5,15.8-7.9V-1h55.3
				v157H108.3v3c-0.5-2.6-0.9-5.3-1.2-7.9C106.5,145.8,106.1,140.4,106.1,134.9z"/>
			<path class="st25" d="M108,134.9c0-43.3,21.3-82.5,55.6-110.8c8.6-7.1,18-13.5,28.1-19.1c5.1-2.8,10.3-5.4,15.7-7.9V-1h54.4v157
				H110.2v2.8c-0.5-2.6-0.9-5.2-1.2-7.8C108.3,145.7,108,140.3,108,134.9z"/>
			<path class="st26" d="M109.9,134.9c0-42.9,21.1-81.7,55.1-109.8c8.5-7,17.8-13.4,27.8-19c5-2.8,10.2-5.4,15.5-7.8V-1h53.5v157
				H112v2.6c-0.5-2.6-0.9-5.2-1.2-7.8C110.2,145.6,109.9,140.3,109.9,134.9z"/>
			<path class="st27" d="M111.7,134.9c0-42.4,20.8-80.9,54.6-108.7c16.9-13.9,36.9-25.2,59.2-32.9V-1h36.3v157h-148v2.3
				c-0.5-2.5-0.9-5.1-1.2-7.7C112,145.5,111.7,140.2,111.7,134.9z"/>
			<path class="st28" d="M113.6,134.9c0-42,20.6-80,54-107.6c16.7-13.8,36.6-24.9,58.6-32.6V-1h35.6v157H115.7v2.1
				c-0.5-2.5-0.9-5.1-1.2-7.6C113.9,145.4,113.6,140.2,113.6,134.9z"/>
			<path class="st29" d="M115.4,134.9c0-41.6,20.4-79.2,53.5-106.5c16.5-13.6,36.2-24.7,58-32.3V-1h34.9v157H117.5v1.9
				c-0.5-2.5-0.8-5-1.2-7.5C115.8,145.3,115.4,140.1,115.4,134.9z"/>
			<path class="st30" d="M117.3,134.9c0-41.2,20.2-78.4,52.9-105.4C186.6,16,206,5.1,227.7-2.4V-1h34.2v157H119.4v1.6
				c-0.5-2.5-0.8-5-1.1-7.5C117.6,145.1,117.3,140.1,117.3,134.9z"/>
			<path class="st31" d="M119.2,134.9c0-40.7,20-77.6,52.4-104.3C187.7,17.3,207,6.4,228.4-1v0h33.4v157H121.2v1.4
				c-0.5-2.4-0.8-4.9-1.1-7.4C119.5,145,119.2,140,119.2,134.9z"/>
			<path class="st32" d="M121,134.9c0-40.3,19.8-76.8,51.8-103.2c16-13.2,35.1-23.9,56.2-31.3c5.3-1.8,10.7-3.5,16.3-4.9V-1h16.5
				v157H123.1v1.2c-0.4-2.4-0.8-4.9-1.1-7.3C121.3,144.9,121,140,121,134.9z"/>
			<path class="st33" d="M122.9,134.9c0-39.9,19.6-76,51.3-102.1c15.8-13.1,34.7-23.6,55.7-31c10.5-3.7,21.5-6.5,32.9-8.4L261.8-1
				v157H124.9v0.9c-0.4-2.4-0.8-4.8-1.1-7.2C123.2,144.8,122.9,139.9,122.9,134.9z"/>
			<path class="st34" d="M124.8,134.9c0-39.5,19.4-75.2,50.7-101.1c15.7-12.9,34.3-23.4,55.1-30.6c10.4-3.6,21.2-6.4,32.5-8.3
				L261.8-1v157H126.7v0.7c-0.4-2.4-0.8-4.8-1.1-7.2C125.1,144.7,124.8,139.9,124.8,134.9z"/>
			<path class="st35" d="M126.6,134.9c0-39,19.2-74.4,50.2-100c15.5-12.8,34-23.1,54.5-30.3c10.3-3.6,21-6.4,32.2-8.2L261.8-1v157
				H128.6v0.5c-0.4-2.3-0.8-4.7-1.1-7.1C126.9,144.6,126.6,139.8,126.6,134.9z"/>
			<path class="st36" d="M128.5,134.9c0-38.6,19-73.6,49.6-98.9c15.3-12.7,33.6-22.9,53.9-30c10.1-3.5,20.8-6.3,31.8-8.1l-2,1.1v157
				H130.4v0.2c-0.4-2.3-0.8-4.6-1.1-7C128.8,144.5,128.5,139.7,128.5,134.9z"/>
			<path class="st37" d="M130.3,134.9c0-38.2,18.8-72.8,49.1-97.8c15.2-12.5,33.2-22.6,53.3-29.6c10-3.5,20.6-6.2,31.5-8.1h-2.4V156
				H133.7v6.8C131.5,153.8,130.3,144.5,130.3,134.9z"/>
			<path class="st38" d="M132.2,134.9c0-37.8,18.6-72,48.6-96.7c15-12.4,32.9-22.4,52.7-29.3c9.9-3.5,20.3-6.1,31.1-8h-2.7V156
				H135.6v6.5C133.4,153.6,132.2,144.4,132.2,134.9z"/>
			<path class="st39" d="M134.1,134.9c0-37.3,18.3-71.2,48-95.6c14.8-12.2,32.5-22.1,52.1-29c9.8-3.4,20.1-6.1,30.8-7.9h-3.1V156
				H137.4v6.2C135.2,153.4,134.1,144.3,134.1,134.9z"/>
			<path class="st40" d="M135.9,134.9c0-36.9,18.1-70.3,47.5-94.5c14.7-12.1,32.1-21.9,51.5-28.7c9.7-3.4,19.9-6,30.4-7.8h-3.5v152
				H139.2v5.9C137.1,153.2,135.9,144.1,135.9,134.9z"/>
			<path class="st41" d="M137.8,134.9c0-36.5,17.9-69.5,46.9-93.5c14.5-12,31.8-21.6,50.9-28.3c9.6-3.3,19.6-5.9,30.1-7.7h-3.9V156
				H141v5.6C138.9,153,137.8,144,137.8,134.9z"/>
			<path class="st42" d="M139.7,134.9c0-36.1,17.7-68.7,46.4-92.4c14.3-11.8,31.4-21.4,50.3-28c9.5-3.3,19.4-5.9,29.7-7.6h-4.2v149
				h-119v5.3C140.8,152.7,139.7,143.9,139.7,134.9z"/>
			<path class="st43" d="M141.5,134.9c0-35.6,17.5-67.9,45.8-91.3c14.2-11.7,31-21.1,49.7-27.7c9.4-3.3,19.2-5.8,29.4-7.5h-4.6V156
				H144.7v5C142.6,152.5,141.5,143.8,141.5,134.9z"/>
			<path class="st44" d="M143.4,134.9c0-35.2,17.3-67.1,45.3-90.2c14-11.5,30.6-20.9,49.1-27.3c9.2-3.2,19-5.7,29-7.4h-5v146H146.5
				v4.6C144.5,152.3,143.4,143.7,143.4,134.9z"/>
			<path class="st45" d="M145.2,134.9c0-34.8,17.1-66.3,44.7-89.1c13.8-11.4,30.3-20.6,48.5-27c9.1-3.2,18.7-5.7,28.7-7.3h-5.4V156
				H148.3v4.3C146.3,152.1,145.2,143.6,145.2,134.9z"/>
			<path class="st46" d="M147.1,134.9c0-34.4,16.9-65.5,44.2-88c13.7-11.3,29.9-20.4,48-26.7c9-3.1,18.5-5.6,28.3-7.3h-5.8v143
				H150.2v4C148.2,151.9,147.1,143.5,147.1,134.9z"/>
			<path class="st47" d="M149,134.9c0-33.9,16.7-64.7,43.6-86.9c13.5-11.1,29.5-20.1,47.4-26.3c8.9-3.1,18.3-5.5,28-7.2h-6.1V156
				H152v3.7C150,151.7,149,143.4,149,134.9z"/>
			<path class="st48" d="M150.8,134.9c0-33.5,16.5-63.9,43.1-85.8c13.3-11,29.2-19.9,46.8-26c8.8-3.1,18-5.5,27.6-7.1h-6.5v140h-108
				v3.4C151.9,151.5,150.8,143.3,150.8,134.9z"/>
			<path class="st49" d="M152.7,134.9c0-33.1,16.3-63.1,42.6-84.8c13.1-10.8,28.8-19.6,46.2-25.7c8.7-3,17.8-5.4,27.3-7h-6.9V156
				H155.6v3.1C153.7,151.3,152.7,143.2,152.7,134.9z"/>
			<path class="st50" d="M154.6,134.9c0-32.7,16.1-62.3,42-83.7c13-10.7,28.4-19.4,45.6-25.4c4.3-1.5,8.7-2.8,13.2-4
				c2.2-0.6,4.5-1.1,6.8-1.6h-0.3V156H157.5v2.8C155.6,151.1,154.6,143.1,154.6,134.9z"/>
			<path class="st51" d="M156.4,134.9c0-32.3,15.8-61.5,41.5-82.6c12.8-10.6,28.1-19.1,45-25c4.2-1.5,8.6-2.8,13-3.9
				c2.2-0.6,4.5-1.1,6.7-1.6h-0.8V156H159.3v2.5C157.4,150.9,156.4,143,156.4,134.9z"/>
			<path class="st52" d="M158.3,134.9c0-31.8,15.6-60.6,40.9-81.5c12.6-10.4,27.7-18.9,44.4-24.7c4.2-1.5,8.5-2.8,12.8-3.9
				c2.2-0.6,4.4-1.1,6.6-1.6h-1.2V156H161.1v2.2C159.3,150.6,158.3,142.9,158.3,134.9z"/>
			<path class="st53" d="M160.1,134.9c0-31.4,15.4-59.8,40.4-80.4c12.5-10.3,27.3-18.6,43.8-24.4c4.1-1.4,8.3-2.7,12.7-3.8
				c2.2-0.6,4.3-1.1,6.5-1.5h-1.7V156h-98.9v1.9C161.1,150.4,160.1,142.8,160.1,134.9z"/>
			<path class="st54" d="M162,134.9c0-31,15.2-59,39.8-79.3c12.3-10.2,27-18.4,43.2-24c4.1-1.4,8.2-2.7,12.5-3.8
				c2.1-0.5,4.3-1.1,6.5-1.5h-2.2V156h-97.1v1.5C163,150.2,162,142.7,162,134.9z"/>
			<path class="st55" d="M163.9,134.9c0-30.6,15-58.2,39.3-78.2c12.1-10,26.6-18.1,42.6-23.7c4-1.4,8.1-2.6,12.3-3.7
				c2.1-0.5,4.2-1,6.4-1.5h-2.6V156h-95.2v1.2C164.8,150,163.9,142.6,163.9,134.9z"/>
			<path class="st56" d="M165.7,134.9c0-30.1,14.8-57.4,38.7-77.2c12-9.9,26.2-17.9,42-23.4c4-1.4,8-2.6,12.2-3.7
				c2.1-0.5,4.2-1,6.3-1.5h-3.1V156h-93.4v0.9C166.7,149.8,165.7,142.5,165.7,134.9z"/>
			<path class="st57" d="M167.6,134.9c0-29.7,14.6-56.6,38.2-76.1c11.8-9.7,25.8-17.6,41.4-23.1c3.9-1.4,7.9-2.6,12-3.6
				c2-0.5,4.1-1,6.2-1.4h-3.6V156h-91.6v0.6C168.5,149.6,167.6,142.3,167.6,134.9z"/>
			<path class="st58" d="M169.5,134.9c0-29.3,14.4-55.8,37.6-75c11.6-9.6,25.5-17.4,40.9-22.7c3.8-1.3,7.8-2.5,11.8-3.6
				c2-0.5,4-1,6.1-1.4h-4V156h-89.8v0.3C170.4,149.4,169.5,142.2,169.5,134.9z"/>
			<path class="st59" d="M171.3,134.9c0-28.9,14.2-55,37.1-73.9c11.5-9.5,25.1-17.1,40.3-22.4c3.8-1.3,7.7-2.5,11.6-3.5
				c2-0.5,4-1,6-1.4h-4.5V156h-86.5v5.1c-0.5-1.7-1-3.4-1.4-5.1C172.2,149.2,171.3,142.1,171.3,134.9z"/>
			<path class="st60" d="M173.2,134.9c0-28.4,14-54.2,36.6-72.8c11.3-9.3,24.7-16.9,39.7-22.1c3.7-1.3,7.6-2.5,11.5-3.5
				c2-0.5,3.9-1,5.9-1.4h-5V156h-84.7v4.7c-0.5-1.6-1-3.3-1.4-5C174.1,149,173.2,142,173.2,134.9z"/>
			<path class="st61" d="M175,134.9c0-28,13.8-53.4,36-71.7c11.1-9.2,24.4-16.6,39.1-21.7c3.7-1.3,7.4-2.4,11.3-3.4
				c1.9-0.5,3.9-0.9,5.8-1.4h-5.4V156h-82.9v4.3c-0.5-1.6-1-3.3-1.4-4.9C175.9,148.8,175,141.9,175,134.9z"/>
			<path class="st62" d="M176.9,134.9c0-27.6,13.6-52.6,35.5-70.6c11-9,24-16.4,38.5-21.4c3.6-1.3,7.3-2.4,11.1-3.4h-0.2V156h-81.1
				v3.9c-0.5-1.6-0.9-3.2-1.4-4.8C177.8,148.5,176.9,141.8,176.9,134.9z"/>
			<path class="st63" d="M178.8,134.9c0-27.2,13.3-51.7,34.9-69.5c10.8-8.9,23.6-16.1,37.9-21.1c3.6-1.2,7.2-2.3,11-3.3h-0.7v115
				h-79.3v3.5c-0.5-1.6-0.9-3.2-1.3-4.8C179.6,148.3,178.8,141.7,178.8,134.9z"/>
			<path class="st64" d="M180.6,134.9c0-26.7,13.1-50.9,34.4-68.5c10.6-8.8,23.3-15.8,37.3-20.7c3.5-1.2,7.1-2.3,10.8-3.3h-1.3V156
				h-77.5v3.1c-0.5-1.5-0.9-3.1-1.3-4.7C181.5,148.1,180.6,141.6,180.6,134.9z"/>
			<path class="st65" d="M182.5,134.9c0-26.3,12.9-50.1,33.8-67.4c10.4-8.6,22.9-15.6,36.7-20.4c3.5-1.2,7-2.3,10.6-3.2h-1.8V156
				h-75.7v2.7c-0.5-1.5-0.9-3.1-1.3-4.6C183.3,147.9,182.5,141.5,182.5,134.9z"/>
			<path class="st66" d="M184.4,134.9c0-25.9,12.7-49.3,33.3-66.3c10.3-8.5,22.5-15.3,36.1-20.1c3.4-1.2,6.9-2.2,10.4-3.2h-2.4V156
				h-72.4v6.8c-1.1-2.9-2-5.9-2.8-9C185.2,147.7,184.4,141.4,184.4,134.9z"/>
			<path class="st67" d="M186.2,134.9c0-25.5,12.5-48.5,32.7-65.2c10.1-8.3,22.2-15.1,35.5-19.8c3.3-1.2,6.8-2.2,10.3-3.1h-2.9V156
				h-70.6v6.4c-1.1-2.9-2-5.8-2.8-8.8C187,147.5,186.2,141.3,186.2,134.9z"/>
			<path class="st68" d="M188.1,134.9c0-25,12.3-47.7,32.2-64.1c9.9-8.2,21.8-14.8,34.9-19.4c3.3-1.1,6.7-2.2,10.1-3h-3.5V156H193
				v5.9c-1.1-2.8-2-5.7-2.7-8.7C188.9,147.3,188.1,141.2,188.1,134.9z"/>
			<path class="st69" d="M189.9,134.9c0-24.6,12.1-46.9,31.6-63c9.8-8.1,21.4-14.6,34.3-19.1c3.2-1.1,6.5-2.1,9.9-3h-4V156h-67v5.4
				c-1.1-2.8-1.9-5.6-2.7-8.5C190.7,147.1,189.9,141.1,189.9,134.9z"/>
			<path class="st70" d="M191.8,134.9c0-24.2,11.9-46.1,31.1-61.9c9.6-7.9,21-14.3,33.7-18.8c3.2-1.1,6.4-2.1,9.8-2.9h-4.6V156
				h-65.2v5c-1-2.7-1.9-5.5-2.6-8.4C192.6,146.9,191.8,141,191.8,134.9z"/>
			<path class="st71" d="M193.7,134.9c0-23.8,11.7-45.3,30.6-60.9c9.4-7.8,20.7-14.1,33.2-18.4c3.1-1.1,6.3-2.1,9.6-2.9h-5.1V156
				h-63.5v4.5c-1-2.7-1.9-5.4-2.6-8.2C194.4,146.7,193.7,140.9,193.7,134.9z"/>
			<path class="st72" d="M195.5,134.9c0-23.3,11.5-44.5,30-59.8c9.3-7.6,20.3-13.8,32.6-18.1c3.1-1.1,6.2-2,9.4-2.8h-5.7V156h-61.7
				v4.1c-1-2.6-1.8-5.3-2.5-8.1C196.3,146.5,195.5,140.8,195.5,134.9z"/>
			<path class="st73" d="M197.4,134.9c0-22.9,11.3-43.7,29.5-58.7c9.1-7.5,19.9-13.6,32-17.8c3-1,6.1-2,9.2-2.8h-6.2V156h-59.9v3.6
				c-1-2.6-1.8-5.3-2.5-8C198.1,146.2,197.4,140.6,197.4,134.9z"/>
			<path class="st74" d="M199.3,134.9c0-22.5,11-42.9,28.9-57.6c8.9-7.4,19.6-13.3,31.4-17.5c3-1,6-1.9,9.1-2.7h-6.8V156h-58.1v3.2
				c-1-2.6-1.8-5.2-2.4-7.8C199.9,146,199.3,140.5,199.3,134.9z"/>
			<path class="st75" d="M201.1,134.9c0-22.1,10.8-42,28.4-56.5c8.8-7.2,19.2-13.1,30.8-17.1c1.4-0.5,2.9-1,4.4-1.4h-2.9V156h-56.3
				v2.7c-0.9-2.5-1.7-5.1-2.4-7.7C201.8,145.8,201.1,140.4,201.1,134.9z"/>
			<path class="st76" d="M203,134.9c0-21.6,10.6-41.2,27.8-55.4c8.6-7.1,18.8-12.8,30.2-16.8c1.4-0.5,2.9-1,4.3-1.4h-3.5V156h-54.6
				v2.2c-0.9-2.5-1.7-5-2.3-7.5C203.6,145.6,203,140.3,203,134.9z"/>
			<path class="st77" d="M204.8,134.9c0-21.2,10.4-40.4,27.3-54.3c8.4-7,18.5-12.6,29.6-16.5c1.4-0.5,2.8-0.9,4.2-1.4h-4.1V156H209
				v1.8c-0.9-2.4-1.7-4.9-2.3-7.4C205.5,145.4,204.8,140.2,204.8,134.9z"/>
			<path class="st78" d="M206.7,134.9c0-20.8,10.2-39.6,26.7-53.2c8.3-6.8,18.1-12.3,29-16.1h-0.6V156h-51v1.3
				c-0.9-2.4-1.6-4.8-2.2-7.2C207.3,145.2,206.7,140.1,206.7,134.9z"/>
			<path class="st79" d="M208.6,134.9c0-20.4,10-38.8,26.2-52.2c8.1-6.7,17.7-12.1,28.4-15.8h-1.4v89h-49.2v0.9
				c-0.9-2.3-1.6-4.7-2.2-7.1C209.2,145,208.6,140,208.6,134.9z"/>
			<path class="st80" d="M210.4,134.9c0-19.9,9.8-38,25.6-51.1c7.9-6.5,17.4-11.8,27.8-15.5h-2.1V156h-47.5v0.4
				c-0.9-2.3-1.6-4.6-2.2-6.9C211,144.8,210.4,139.9,210.4,134.9z"/>
			<path class="st81" d="M212.3,134.9c0-19.5,9.6-37.2,25.1-50c7.8-6.4,17-11.6,27.2-15.1h-2.8V156H219v6.5
				C214.7,154,212.3,144.7,212.3,134.9z"/>
			<path class="st82" d="M214.2,134.9c0-19.1,9.4-36.4,24.6-48.9c7.6-6.3,16.6-11.3,26.6-14.8h-3.5V156h-41.1v5.9
				C216.5,153.6,214.2,144.5,214.2,134.9z"/>
			<path class="st83" d="M216,134.9c0-18.7,9.2-35.6,24-47.8c7.4-6.1,16.2-11.1,26.1-14.5h-4.3V156h-39.4v5.3
				C218.3,153.1,216,144.3,216,134.9z"/>
			<path class="st84" d="M217.9,134.9c0-18.2,9-34.8,23.5-46.7c7.2-6,15.9-10.8,25.5-14.2h-5v82h-37.6v4.7
				C220.1,152.7,217.9,144,217.9,134.9z"/>
			<path class="st85" d="M219.7,134.9c0-17.8,8.8-34,22.9-45.6c7.1-5.8,15.5-10.6,24.9-13.8h-5.7V156h-35.9v4.1
				C221.9,152.3,219.7,143.8,219.7,134.9z"/>
			<path class="st86" d="M221.6,134.9c0-17.4,8.5-33.2,22.4-44.6c6.9-5.7,15.1-10.3,24.3-13.5h-6.4V156h-34.2v3.5
				C223.7,151.9,221.6,143.6,221.6,134.9z"/>
			<path class="st87" d="M223.5,134.9c0-17,8.3-32.3,21.8-43.5c3.4-2.8,7.1-5.3,11-7.5c2-1.1,4-2.1,6.1-3.1h-0.6V156h-32.5v2.9
				C225.6,151.5,223.5,143.4,223.5,134.9z"/>
			<path class="st88" d="M225.3,134.9c0-16.6,8.1-31.5,21.3-42.4c3.3-2.7,6.9-5.2,10.8-7.3c1.9-1.1,3.9-2.1,6-3h-1.5V156H231v2.3
				C227.4,151.1,225.3,143.2,225.3,134.9z"/>
			<path class="st89" d="M227.2,134.9c0-16.1,7.9-30.7,20.7-41.3c3.2-2.6,6.7-5,10.5-7.1c1.9-1,3.8-2,5.8-2.9h-2.4V156h-29.1v1.7
				C229.2,150.7,227.2,143,227.2,134.9z"/>
			<path class="st90" d="M229.1,134.9c0-15.7,7.7-29.9,20.2-40.2c3.1-2.6,6.5-4.9,10.2-6.9c1.8-1,3.7-2,5.7-2.8h-3.3V156h-27.3v1.1
				C231,150.2,229.1,142.8,229.1,134.9z"/>
			<path class="st91" d="M230.9,134.9c0-15.3,7.5-29.1,19.6-39.1c3-2.5,6.4-4.8,9.9-6.8c1.8-1,3.6-1.9,5.5-2.8h-4.2V156h-25.6v0.5
				C232.8,149.8,230.9,142.6,230.9,134.9z"/>
			<path class="st92" d="M232.8,134.9c0-14.9,7.3-28.3,19.1-38c2.9-2.4,6.2-4.6,9.6-6.6c1.7-1,3.5-1.9,5.4-2.7h-5.1V156h-21.2v4.6
				c-1-1.5-1.9-3.1-2.7-4.7C234.6,149.4,232.8,142.3,232.8,134.9z"/>
			<path class="st93" d="M234.7,134.9c0-14.4,7.1-27.5,18.5-36.9c2.9-2.4,6-4.5,9.4-6.4h-0.7V156h-19.5v3.8c-1-1.5-1.9-3-2.7-4.6
				C236.4,149,234.7,142.1,234.7,134.9z"/>
			<path class="st94" d="M236.5,134.9c0-14,6.9-26.7,18-35.9c2.8-2.3,5.8-4.4,9.1-6.2h-1.8V156h-17.9v3.1c-0.9-1.4-1.8-2.9-2.6-4.4
				C238.2,148.6,236.5,141.9,236.5,134.9z"/>
			<path class="st95" d="M238.4,134.9c0-13.6,6.7-25.9,17.5-34.8c2.7-2.2,5.7-4.2,8.8-6h-2.8V156h-13.3v6.4c-2.1-2.6-4-5.4-5.5-8.4
				C240,148.2,238.4,141.7,238.4,134.9z"/>
			<path class="st96" d="M240.2,134.9c0-13.2,6.5-25.1,16.9-33.7c2.6-2.2,5.5-4.1,8.5-5.8h-3.9V156h-11.7v5.6
				c-2.1-2.5-3.9-5.2-5.3-8.1C241.9,147.8,240.2,141.5,240.2,134.9z"/>
			<path class="st97" d="M242.1,134.9c0-12.7,6.3-24.3,16.4-32.6c2.5-2.1,5.3-4,8.3-5.6h-4.9V156h-10.2v4.7c-2-2.5-3.7-5.1-5.2-7.8
				C243.7,147.3,242.1,141.3,242.1,134.9z"/>
			<path class="st98" d="M244,134.9c0-12.3,6-23.4,15.8-31.5c2.4-2,5.1-3.8,8-5.4h-6v58h-8.6v3.9c-1.9-2.4-3.6-4.9-5-7.6
				C245.5,146.9,244,141.1,244,134.9z"/>
			<path class="st99" d="M245.8,134.9c0-11.9,5.8-22.6,15.3-30.4c2.4-1.9,4.9-3.7,7.7-5.3h-7V156h-7.1v3c-1.9-2.3-3.5-4.7-4.8-7.3
				C247.3,146.5,245.8,140.9,245.8,134.9z"/>
			<path class="st100" d="M247.7,134.9c0-11.5,5.6-21.8,14.7-29.3h-0.6V156h-5.5v2.1c-1.8-2.2-3.4-4.6-4.6-7
				C249.1,146.1,247.7,140.6,247.7,134.9z"/>
			<path class="st101" d="M249.6,134.9c0-11,5.4-21,14.2-28.3h-1.9V156h-4v1.3c-1.7-2.1-3.2-4.4-4.5-6.8
				C250.9,145.7,249.6,140.4,249.6,134.9z"/>
			<path class="st102" d="M251.4,134.9c0-10.6,5.2-20.2,13.6-27.2h-3.2V156l3.2,6.1C256.6,155.1,251.4,145.5,251.4,134.9z"/>
			<path class="st103" d="M253.3,134.9c0-10.2,5-19.4,13.1-26.1h-4.5V156l4.5,5C258.3,154.3,253.3,145.1,253.3,134.9z"/>
			<path class="st104" d="M255.1,134.9c0-9.8,4.8-18.6,12.5-25h-5.9V156l5.9,3.9C259.9,153.5,255.1,144.7,255.1,134.9z"/>
			<path class="st105" d="M257,134.9c0-4.7,1.1-9.1,3.2-13.2c1-2,2.3-3.9,3.8-5.7h-2.2v37.8h2.2c-1.5-1.8-2.7-3.7-3.8-5.7
				C258.1,144,257,139.6,257,134.9z"/>
			<path class="st106" d="M258.9,134.9c0-4.5,1.1-8.7,3.1-12.6h-0.1v25.1h0.1C260,143.6,258.9,139.4,258.9,134.9z"/>
			<path class="st107" d="M260.7,134.9c0-4.2,1-8.3,2.9-12h-1.8v23.9h1.8C261.8,143.2,260.7,139.2,260.7,134.9z"/>
			<path class="st108" d="M261.8,134.9v-29.2V134.9z"/>
			<path class="st109" d="M261.8,134.9v-27.7V134.9z"/>
			<path class="st110" d="M261.8,134.9v-26.1V134.9z"/>
			<path class="st111" d="M261.8,134.9v-24.6V134.9z"/>
			<path class="st112" d="M261.8,134.9v-23.1V134.9z"/>
			<path class="st113" d="M261.8,134.9v-21.5V134.9z"/>
			<path class="st114" d="M261.8,134.9v-20V134.9z"/>
			<path class="st115" d="M261.8,134.9v-18.4V134.9z"/>
			<path class="st116" d="M261.8,134.9V118V134.9z"/>
			<path class="st117" d="M261.8,134.9v-15.4V134.9z"/>
			<path class="st118" d="M261.8,134.9v-13.8V134.9z"/>
			<path class="st119" d="M261.8,134.9v-12.3V134.9z"/>
			<path class="st120" d="M261.8,134.9v-10.8V134.9z"/>
			<path class="st121" d="M261.8,134.9v-9.2V134.9z"/>
			<path class="st122" d="M261.8,134.9v-7.7V134.9z"/>
			<path class="st123" d="M261.8,134.9v-6.1V134.9z"/>
			<path class="st124" d="M261.8,134.9v-4.6V134.9z"/>
			<path class="st125" d="M261.8,134.9v-3.1V134.9z"/>
			<path class="st126" d="M261.8,134.9v-1.5V134.9z"/>
		</g>
	</g>
	<g>
		
			<linearGradient id="SVGID_3_" gradientUnits="userSpaceOnUse" x1="-163.5042" y1="252.2114" x2="-401.1063" y2="220.9052" gradientTransform="matrix(0.587 0.5044 -1.1918 0.5778 551.3217 -1.4107)">
			<stop  offset="0" style="stop-color:#FCBA9D"/>
			<stop  offset="0.5634" style="stop-color:#EE8594"/>
			<stop  offset="1" style="stop-color:#E4608D"/>
		</linearGradient>
		<polygon class="st127" points="260.8,0 64.5,95.2 0,57.9 		"/>
		
			<linearGradient id="SVGID_4_" gradientUnits="userSpaceOnUse" x1="712.7114" y1="123.5042" x2="842.7916" y2="104.5458" gradientTransform="matrix(-0.8737 -0.3389 -1.0008 0.6881 979.2885 246.1729)">
			<stop  offset="0" style="stop-color:#FCBA9D"/>
			<stop  offset="0.5634" style="stop-color:#EE8594"/>
			<stop  offset="1" style="stop-color:#E4608D"/>
		</linearGradient>
		<polygon class="st128" points="260.8,0 96,113.3 160.5,150.6 		"/>
		
			<linearGradient id="SVGID_5_" gradientUnits="userSpaceOnUse" x1="42.9981" y1="176.5821" x2="-138.6497" y2="100.991" gradientTransform="matrix(0.866 0.5 -0.866 0.5 334.592 35.4552)">
			<stop  offset="0" style="stop-color:#F88B93"/>
			<stop  offset="0.2064" style="stop-color:#D76D8E"/>
			<stop  offset="0.5733" style="stop-color:#A23D87"/>
			<stop  offset="0.8491" style="stop-color:#811F82"/>
			<stop  offset="1" style="stop-color:#751480"/>
		</linearGradient>
		<polygon class="st129" points="96,113.3 260.8,0 64.5,95.2 80.2,155 		"/>
	</g>
	<polygon class="st130" points="61.6,93.5 260.8,0 64.5,95.2 	"/>
	<polygon class="st131" points="96,113.3 260.8,0 98.5,114.8 	"/>
</g>
</svg>
