<?xml version="1.0" encoding="iso-8859-1"?>
<!-- Generator: Adobe Illustrator 17.1.0, SVG Export Plug-In . SVG Version: 6.00 Build 0)  -->
<!DOCTYPE svg PUBLIC "-//W3C//DTD SVG 1.0//EN" "http://www.w3.org/TR/2001/REC-SVG-20010904/DTD/svg10.dtd">
<svg version="1.0" xmlns="http://www.w3.org/2000/svg" xmlns:xlink="http://www.w3.org/1999/xlink" x="0px" y="0px" width="110px"
	 height="110px" viewBox="0 0 110 110" style="enable-background:new 0 0 110 110;" xml:space="preserve">
<g id="Artboard">
</g>
<g id="Multicolor">
	<circle style="fill:#E04F5F;" cx="55" cy="55" r="55"/>
	<g>
		<g>
			<path style="fill:#E2E4E5;" d="M67,39.005c0,6-6,11-12,16s-12,10-12,16c0,12,12,16,12,16c-17.67,0-32-14.33-32-32s14.33-32,32-32
				C55,23.005,67,27.005,67,39.005z"/>
		</g>
		<g>
			<path style="fill:#3E3E3F;" d="M87,55.005c0,17.67-14.33,32-32,32c0,0-12-4-12-16c0-6,6-11,12-16s12-10,12-16c0-12-12-16-12-16
				C72.67,23.005,87,37.335,87,55.005z"/>
		</g>
		<g>
			<path style="fill:#FFFFFF;" d="M55,55.005c6-5,12-10,12-16c0-12-12-16-12-16c-17.67,0-32,14.33-32,32
				c0,9.725,4.347,18.432,11.196,24.302l8.837-8.837C43.378,64.707,49.18,59.854,55,55.005z"/>
		</g>
		<g>
			<circle style="fill:#FFFFFF;" cx="55" cy="71.005" r="6"/>
		</g>
		<g>
			<circle style="fill:#5B5C5F;" cx="55" cy="39.005" r="6"/>
		</g>
		<g>
			<path style="fill:#5B5C5F;" d="M55,55.005c-5.82,4.85-11.622,9.702-11.967,15.464l36.268-36.269
				C73.432,27.351,64.725,23.005,55,23.005c0,0,12,4,12,16C67,45.005,61,50.005,55,55.005z"/>
		</g>
	</g>
</g>
</svg>
