<?xml version="1.0" encoding="iso-8859-1"?>
<!-- Generator: Adobe Illustrator 17.1.0, SVG Export Plug-In . SVG Version: 6.00 Build 0)  -->
<!DOCTYPE svg PUBLIC "-//W3C//DTD SVG 1.0//EN" "http://www.w3.org/TR/2001/REC-SVG-20010904/DTD/svg10.dtd">
<svg version="1.0" xmlns="http://www.w3.org/2000/svg" xmlns:xlink="http://www.w3.org/1999/xlink" x="0px" y="0px" width="110px"
	 height="110px" viewBox="0 0 110 110" style="enable-background:new 0 0 110 110;" xml:space="preserve">
<g id="Artboard" style="display:none;">
	<rect x="-223" y="-583" style="display:inline;fill:#8C8C8C;" width="1412" height="743"/>
</g>
<g id="R-Multicolor">
	<circle style="fill:#FABC3D;" cx="55" cy="55" r="55"/>
	<g>
		<path style="fill:#F0F1F1;" d="M87,79c0,4.418-3.582,8-8,8H31c-4.418,0-8-3.582-8-8V31c0-4.418,3.582-8,8-8h48
			c4.418,0,8,3.582,8,8V79z"/>
		<path style="fill:#FFFFFF;" d="M79,23H31c-4.418,0-8,3.582-8,8v48c0,2.259,0.94,4.296,2.447,5.75l59.304-59.304
			C83.296,23.94,81.259,23,79,23z"/>
		<path style="fill:#3E3E3F;" d="M41,72.5c0,2.209-1.791,4-4,4s-4-1.791-4-4v-36c0-2.209,1.791-4,4-4s4,1.791,4,4V72.5z"/>
		<path style="fill:#3E3E3F;" d="M59,72.5c0,2.209-1.791,4-4,4s-4-1.791-4-4v-36c0-2.209,1.791-4,4-4s4,1.791,4,4V72.5z"/>
		<path style="fill:#3E3E3F;" d="M77,72.5c0,2.209-1.791,4-4,4s-4-1.791-4-4v-36c0-2.209,1.791-4,4-4s4,1.791,4,4V72.5z"/>
		<path style="fill:#17B198;" d="M44,47c0-1.105-1.045-2-2.333-2h-9.333C31.045,45,30,45.895,30,47v4c0,1.105,1.045,2,2.333,2h9.333
			C42.955,53,44,52.105,44,51V47z"/>
		<path style="fill:#17B198;" d="M80,47c0-1.105-1.045-2-2.333-2h-9.333C67.045,45,66,45.895,66,47v4c0,1.105,1.045,2,2.333,2h9.333
			C78.955,53,80,52.105,80,51V47z"/>
		<path style="fill:#FA5655;" d="M62,59c0-1.105-1.045-2-2.333-2h-9.333C49.045,57,48,57.895,48,59v4c0,1.105,1.045,2,2.333,2h9.333
			C60.955,65,62,64.105,62,63V59z"/>
	</g>
</g>
<g id="Multicolor" style="display:none;">
	<g style="display:inline;">
		<path style="fill:#F0F1F1;" d="M87,79c0,4.418-3.582,8-8,8H31c-4.418,0-8-3.582-8-8V31c0-4.418,3.582-8,8-8h48
			c4.418,0,8,3.582,8,8V79z"/>
		<path style="fill:#FFFFFF;" d="M79,23H31c-4.418,0-8,3.582-8,8v48c0,2.259,0.94,4.296,2.447,5.75l59.304-59.304
			C83.296,23.94,81.259,23,79,23z"/>
		<path style="fill:#3E3E3F;" d="M41,72.5c0,2.209-1.791,4-4,4s-4-1.791-4-4v-36c0-2.209,1.791-4,4-4s4,1.791,4,4V72.5z"/>
		<path style="fill:#3E3E3F;" d="M59,72.5c0,2.209-1.791,4-4,4s-4-1.791-4-4v-36c0-2.209,1.791-4,4-4s4,1.791,4,4V72.5z"/>
		<path style="fill:#3E3E3F;" d="M77,72.5c0,2.209-1.791,4-4,4s-4-1.791-4-4v-36c0-2.209,1.791-4,4-4s4,1.791,4,4V72.5z"/>
		<path style="fill:#17B198;" d="M44,47c0-1.105-1.045-2-2.333-2h-9.333C31.045,45,30,45.895,30,47v4c0,1.105,1.045,2,2.333,2h9.333
			C42.955,53,44,52.105,44,51V47z"/>
		<path style="fill:#17B198;" d="M80,47c0-1.105-1.045-2-2.333-2h-9.333C67.045,45,66,45.895,66,47v4c0,1.105,1.045,2,2.333,2h9.333
			C78.955,53,80,52.105,80,51V47z"/>
		<path style="fill:#FA5655;" d="M62,59c0-1.105-1.045-2-2.333-2h-9.333C49.045,57,48,57.895,48,59v4c0,1.105,1.045,2,2.333,2h9.333
			C60.955,65,62,64.105,62,63V59z"/>
	</g>
</g>
<g id="Blue" style="display:none;">
	<g style="display:inline;">
		<g>
			<path style="fill:#E1F5FA;" d="M87.003,79c0,4.419-3.582,8-8,8h-48c-4.418,0-8-3.581-8-8V31c0-4.418,3.582-8,8-8h48
				c4.418,0,8,3.582,8,8V79z"/>
		</g>
		<g>
			<path style="fill:#FFFFFF;" d="M79.003,23h-48c-4.418,0-8,3.581-8,8v48c0,2.259,0.94,4.296,2.446,5.751l59.304-59.304
				C83.299,23.94,81.262,23,79.003,23z"/>
		</g>
		<g>
			<path style="fill:#0C333D;" d="M41.003,72.5c0,2.21-1.791,4-4,4s-4-1.79-4-4v-36c0-2.209,1.791-4,4-4s4,1.791,4,4V72.5z"/>
		</g>
		<g>
			<path style="fill:#0C333D;" d="M59.003,72.5c0,2.21-1.791,4-4,4s-4-1.79-4-4v-36c0-2.209,1.791-4,4-4s4,1.791,4,4V72.5z"/>
		</g>
		<g>
			<path style="fill:#0C333D;" d="M77.003,72.5c0,2.21-1.791,4-4,4s-4-1.79-4-4v-36c0-2.209,1.791-4,4-4s4,1.791,4,4V72.5z"/>
		</g>
		<g>
			<path style="fill:#00B7E5;" d="M44.003,47c0-1.104-1.045-2-2.333-2h-9.333c-1.289,0-2.333,0.896-2.333,2v4
				c0,1.104,1.045,2,2.333,2h9.333c1.289,0,2.333-0.896,2.333-2V47z"/>
		</g>
		<g>
			<path style="fill:#00B7E5;" d="M80.003,47c0-1.104-1.045-2-2.334-2h-9.333c-1.289,0-2.333,0.896-2.333,2v4
				c0,1.104,1.045,2,2.333,2h9.333c1.289,0,2.334-0.896,2.334-2V47z"/>
		</g>
		<g>
			<path style="fill:#00B7E5;" d="M62.003,59c0-1.104-1.045-2-2.333-2h-9.333c-1.289,0-2.333,0.896-2.333,2v4
				c0,1.105,1.045,2,2.333,2h9.333c1.289,0,2.333-0.895,2.333-2V59z"/>
		</g>
	</g>
</g>
<g id="R-Blue" style="display:none;">
	<g style="display:inline;">
		<circle style="fill:#81D2EB;" cx="55" cy="55" r="55"/>
	</g>
	<g style="display:inline;">
		<g>
			<path style="fill:#E1F5FA;" d="M87,79c0,4.419-3.581,8-8,8H31c-4.418,0-8-3.581-8-8V31c0-4.418,3.582-8,8-8h48
				c4.419,0,8,3.582,8,8V79z"/>
		</g>
		<g>
			<path style="fill:#FFFFFF;" d="M79,23H31c-4.418,0-8,3.581-8,8v48c0,2.259,0.94,4.296,2.446,5.751l59.304-59.304
				C83.296,23.94,81.259,23,79,23z"/>
		</g>
		<g>
			<path style="fill:#0C333D;" d="M41,72.5c0,2.21-1.791,4-4,4s-4-1.79-4-4v-36c0-2.209,1.791-4,4-4s4,1.791,4,4V72.5z"/>
		</g>
		<g>
			<path style="fill:#0C333D;" d="M59,72.5c0,2.21-1.791,4-4,4s-4-1.79-4-4v-36c0-2.209,1.791-4,4-4s4,1.791,4,4V72.5z"/>
		</g>
		<g>
			<path style="fill:#0C333D;" d="M77,72.5c0,2.21-1.791,4-4,4s-4-1.79-4-4v-36c0-2.209,1.791-4,4-4s4,1.791,4,4V72.5z"/>
		</g>
		<g>
			<path style="fill:#00B7E5;" d="M44,47c0-1.104-1.045-2-2.333-2h-9.333C31.045,45,30,45.896,30,47v4c0,1.104,1.045,2,2.333,2
				h9.333C42.955,53,44,52.104,44,51V47z"/>
		</g>
		<g>
			<path style="fill:#00B7E5;" d="M80,47c0-1.104-1.045-2-2.333-2h-9.333C67.045,45,66,45.896,66,47v4c0,1.104,1.045,2,2.334,2
				h9.333C78.955,53,80,52.104,80,51V47z"/>
		</g>
		<g>
			<path style="fill:#00B7E5;" d="M62,59c0-1.104-1.045-2-2.333-2h-9.333C49.045,57,48,57.896,48,59v4c0,1.104,1.045,2,2.333,2
				h9.333C60.955,65,62,64.104,62,63V59z"/>
		</g>
	</g>
</g>
<g id="Green" style="display:none;">
	<g style="display:inline;">
		<g>
			<path style="fill:#D7FCF9;" d="M87.003,79c0,4.419-3.582,8-8,8h-48c-4.418,0-8-3.581-8-8V31c0-4.418,3.582-8,8-8h48
				c4.418,0,8,3.582,8,8V79z"/>
		</g>
		<g>
			<path style="fill:#FFFFFF;" d="M79.003,23h-48c-4.418,0-8,3.581-8,8v48c0,2.259,0.94,4.296,2.446,5.751l59.304-59.304
				C83.299,23.94,81.262,23,79.003,23z"/>
		</g>
		<g>
			<path style="fill:#0A3631;" d="M41.003,72.5c0,2.21-1.791,4-4,4s-4-1.79-4-4v-36c0-2.209,1.791-4,4-4s4,1.791,4,4V72.5z"/>
		</g>
		<g>
			<path style="fill:#0A3631;" d="M59.003,72.5c0,2.21-1.791,4-4,4s-4-1.79-4-4v-36c0-2.209,1.791-4,4-4s4,1.791,4,4V72.5z"/>
		</g>
		<g>
			<path style="fill:#0A3631;" d="M77.003,72.5c0,2.21-1.791,4-4,4s-4-1.79-4-4v-36c0-2.209,1.791-4,4-4s4,1.791,4,4V72.5z"/>
		</g>
		<g>
			<path style="fill:#00D6C1;" d="M44.003,47c0-1.104-1.045-2-2.333-2h-9.333c-1.289,0-2.333,0.896-2.333,2v4
				c0,1.104,1.045,2,2.333,2h9.333c1.289,0,2.333-0.896,2.333-2V47z"/>
		</g>
		<g>
			<path style="fill:#00D6C1;" d="M80.003,47c0-1.104-1.045-2-2.334-2h-9.333c-1.289,0-2.333,0.896-2.333,2v4
				c0,1.104,1.045,2,2.333,2h9.333c1.289,0,2.334-0.896,2.334-2V47z"/>
		</g>
		<g>
			<path style="fill:#00D6C1;" d="M62.003,59c0-1.104-1.045-2-2.333-2h-9.333c-1.289,0-2.333,0.896-2.333,2v4
				c0,1.104,1.045,2,2.333,2h9.333c1.289,0,2.333-0.896,2.333-2V59z"/>
		</g>
	</g>
</g>
<g id="R-Green" style="display:none;">
	<g style="display:inline;">
		<circle style="fill:#87E0C8;" cx="55" cy="55" r="55"/>
	</g>
	<g style="display:inline;">
		<g>
			<path style="fill:#D7FCF9;" d="M87,79c0,4.419-3.581,8-8,8H31c-4.418,0-8-3.581-8-8V31c0-4.418,3.582-8,8-8h48
				c4.419,0,8,3.582,8,8V79z"/>
		</g>
		<g>
			<path style="fill:#FFFFFF;" d="M79,23H31c-4.418,0-8,3.581-8,8v48c0,2.259,0.94,4.296,2.446,5.751l59.304-59.304
				C83.296,23.94,81.259,23,79,23z"/>
		</g>
		<g>
			<path style="fill:#0A3631;" d="M41,72.5c0,2.21-1.791,4-4,4s-4-1.79-4-4v-36c0-2.209,1.791-4,4-4s4,1.791,4,4V72.5z"/>
		</g>
		<g>
			<path style="fill:#0A3631;" d="M59,72.5c0,2.21-1.791,4-4,4s-4-1.79-4-4v-36c0-2.209,1.791-4,4-4s4,1.791,4,4V72.5z"/>
		</g>
		<g>
			<path style="fill:#0A3631;" d="M77,72.5c0,2.21-1.791,4-4,4s-4-1.79-4-4v-36c0-2.209,1.791-4,4-4s4,1.791,4,4V72.5z"/>
		</g>
		<g>
			<path style="fill:#00D6C1;" d="M44,47c0-1.104-1.045-2-2.333-2h-9.333C31.045,45,30,45.896,30,47v4c0,1.104,1.045,2,2.333,2
				h9.333C42.955,53,44,52.104,44,51V47z"/>
		</g>
		<g>
			<path style="fill:#00D6C1;" d="M80,47c0-1.104-1.045-2-2.333-2h-9.333C67.045,45,66,45.896,66,47v4c0,1.104,1.045,2,2.334,2
				h9.333C78.955,53,80,52.104,80,51V47z"/>
		</g>
		<g>
			<path style="fill:#00D6C1;" d="M62,59c0-1.104-1.045-2-2.333-2h-9.333C49.045,57,48,57.896,48,59v4c0,1.104,1.045,2,2.333,2
				h9.333C60.955,65,62,64.104,62,63V59z"/>
		</g>
	</g>
</g>
<g id="Red" style="display:none;">
	<g style="display:inline;">
		<g>
			<path style="fill:#FFEFED;" d="M87,79c0,4.419-3.581,8-8,8H31c-4.418,0-8-3.581-8-8V31c0-4.418,3.582-8,8-8h48
				c4.419,0,8,3.582,8,8V79z"/>
		</g>
		<g>
			<path style="fill:#FFFFFF;" d="M79,23H31c-4.418,0-8,3.581-8,8v48c0,2.259,0.94,4.296,2.446,5.751l59.304-59.304
				C83.296,23.94,81.259,23,79,23z"/>
		</g>
		<g>
			<path style="fill:#4A1410;" d="M41,72.5c0,2.21-1.791,4-4,4s-4-1.79-4-4v-36c0-2.209,1.791-4,4-4s4,1.791,4,4V72.5z"/>
		</g>
		<g>
			<path style="fill:#4A1410;" d="M59,72.5c0,2.21-1.791,4-4,4s-4-1.79-4-4v-36c0-2.209,1.791-4,4-4s4,1.791,4,4V72.5z"/>
		</g>
		<g>
			<path style="fill:#4A1410;" d="M77,72.5c0,2.21-1.791,4-4,4s-4-1.79-4-4v-36c0-2.209,1.791-4,4-4s4,1.791,4,4V72.5z"/>
		</g>
		<g>
			<path style="fill:#FF6C5E;" d="M44,47c0-1.104-1.045-2-2.333-2h-9.333C31.045,45,30,45.895,30,47v4c0,1.104,1.045,2,2.333,2
				h9.333C42.955,53,44,52.104,44,51V47z"/>
		</g>
		<g>
			<path style="fill:#FF6C5E;" d="M80,47c0-1.104-1.045-2-2.333-2h-9.333C67.045,45,66,45.895,66,47v4c0,1.104,1.045,2,2.334,2
				h9.333C78.955,53,80,52.104,80,51V47z"/>
		</g>
		<g>
			<path style="fill:#FF6C5E;" d="M62,59c0-1.104-1.045-2-2.333-2h-9.333C49.045,57,48,57.895,48,59v4c0,1.105,1.045,2,2.333,2
				h9.333C60.955,65,62,64.104,62,63V59z"/>
		</g>
	</g>
</g>
<g id="R-Red" style="display:none;">
	<g style="display:inline;">
		<circle style="fill:#FABBAF;" cx="55" cy="55" r="55"/>
	</g>
	<g style="display:inline;">
		<g>
			<path style="fill:#FFEFED;" d="M87,79c0,4.419-3.581,8-8,8H31c-4.418,0-8-3.581-8-8V31c0-4.418,3.582-8,8-8h48
				c4.419,0,8,3.582,8,8V79z"/>
		</g>
		<g>
			<path style="fill:#FFFFFF;" d="M79,23H31c-4.418,0-8,3.581-8,8v48c0,2.259,0.94,4.296,2.446,5.751l59.304-59.304
				C83.296,23.94,81.259,23,79,23z"/>
		</g>
		<g>
			<path style="fill:#4A1410;" d="M41,72.5c0,2.21-1.791,4-4,4s-4-1.79-4-4v-36c0-2.209,1.791-4,4-4s4,1.791,4,4V72.5z"/>
		</g>
		<g>
			<path style="fill:#4A1410;" d="M59,72.5c0,2.21-1.791,4-4,4s-4-1.79-4-4v-36c0-2.209,1.791-4,4-4s4,1.791,4,4V72.5z"/>
		</g>
		<g>
			<path style="fill:#4A1410;" d="M77,72.5c0,2.21-1.791,4-4,4s-4-1.79-4-4v-36c0-2.209,1.791-4,4-4s4,1.791,4,4V72.5z"/>
		</g>
		<g>
			<path style="fill:#FF6C5E;" d="M44,47c0-1.104-1.045-2-2.333-2h-9.333C31.045,45,30,45.896,30,47v4c0,1.104,1.045,2,2.333,2
				h9.333C42.955,53,44,52.104,44,51V47z"/>
		</g>
		<g>
			<path style="fill:#FF6C5E;" d="M80,47c0-1.104-1.045-2-2.333-2h-9.333C67.045,45,66,45.896,66,47v4c0,1.104,1.045,2,2.334,2
				h9.333C78.955,53,80,52.104,80,51V47z"/>
		</g>
		<g>
			<path style="fill:#FF6C5E;" d="M62,59c0-1.104-1.045-2-2.333-2h-9.333C49.045,57,48,57.896,48,59v4c0,1.104,1.045,2,2.333,2
				h9.333C60.955,65,62,64.104,62,63V59z"/>
		</g>
	</g>
</g>
<g id="Yellow" style="display:none;">
	<g style="display:inline;">
		<g>
			<path style="fill:#FFF5D9;" d="M87.003,79c0,4.419-3.582,8-8,8h-48c-4.418,0-8-3.581-8-8V31c0-4.418,3.582-8,8-8h48
				c4.418,0,8,3.582,8,8V79z"/>
		</g>
		<g>
			<path style="fill:#FFFFFF;" d="M79.003,23h-48c-4.418,0-8,3.581-8,8v48c0,2.259,0.94,4.296,2.446,5.751l59.304-59.304
				C83.299,23.94,81.262,23,79.003,23z"/>
		</g>
		<g>
			<path style="fill:#3D320C;" d="M41.003,72.5c0,2.21-1.791,4-4,4s-4-1.79-4-4v-36c0-2.209,1.791-4,4-4s4,1.791,4,4V72.5z"/>
		</g>
		<g>
			<path style="fill:#3D320C;" d="M59.003,72.5c0,2.21-1.791,4-4,4s-4-1.79-4-4v-36c0-2.209,1.791-4,4-4s4,1.791,4,4V72.5z"/>
		</g>
		<g>
			<path style="fill:#3D320C;" d="M77.003,72.5c0,2.21-1.791,4-4,4s-4-1.79-4-4v-36c0-2.209,1.791-4,4-4s4,1.791,4,4V72.5z"/>
		</g>
		<g>
			<path style="fill:#FFAA00;" d="M44.003,47c0-1.104-1.045-2-2.333-2h-9.333c-1.289,0-2.333,0.896-2.333,2v4
				c0,1.104,1.045,2,2.333,2h9.333c1.289,0,2.333-0.896,2.333-2V47z"/>
		</g>
		<g>
			<path style="fill:#FFAA00;" d="M80.003,47c0-1.104-1.045-2-2.334-2h-9.333c-1.289,0-2.333,0.896-2.333,2v4
				c0,1.104,1.045,2,2.333,2h9.333c1.289,0,2.334-0.896,2.334-2V47z"/>
		</g>
		<g>
			<path style="fill:#FFAA00;" d="M62.003,59c0-1.104-1.045-2-2.333-2h-9.333c-1.289,0-2.333,0.896-2.333,2v4
				c0,1.104,1.045,2,2.333,2h9.333c1.289,0,2.333-0.896,2.333-2V59z"/>
		</g>
	</g>
</g>
<g id="R-Yellow" style="display:none;">
	<g style="display:inline;">
		<circle style="fill:#FFD75E;" cx="55" cy="55" r="55"/>
	</g>
	<g style="display:inline;">
		<g>
			<path style="fill:#FFF5D9;" d="M87,79c0,4.419-3.581,8-8,8H31c-4.419,0-8-3.581-8-8V31c0-4.418,3.581-8,8-8h48
				c4.419,0,8,3.582,8,8V79z"/>
		</g>
		<g>
			<path style="fill:#FFFFFF;" d="M79,23H31c-4.418,0-8,3.581-8,8v48c0,2.259,0.94,4.296,2.446,5.751l59.304-59.304
				C83.296,23.94,81.259,23,79,23z"/>
		</g>
		<g>
			<path style="fill:#3D320C;" d="M41,72.5c0,2.21-1.791,4-4,4s-4-1.79-4-4v-36c0-2.209,1.791-4,4-4s4,1.791,4,4V72.5z"/>
		</g>
		<g>
			<path style="fill:#3D320C;" d="M59,72.5c0,2.21-1.791,4-4,4s-4-1.79-4-4v-36c0-2.209,1.791-4,4-4s4,1.791,4,4V72.5z"/>
		</g>
		<g>
			<path style="fill:#3D320C;" d="M77,72.5c0,2.21-1.791,4-4,4s-4-1.79-4-4v-36c0-2.209,1.791-4,4-4s4,1.791,4,4V72.5z"/>
		</g>
		<g>
			<path style="fill:#FFAA00;" d="M44,47c0-1.104-1.045-2-2.333-2h-9.333C31.045,45,30,45.896,30,47v4c0,1.104,1.045,2,2.333,2
				h9.333C42.955,53,44,52.104,44,51V47z"/>
		</g>
		<g>
			<path style="fill:#FFAA00;" d="M80,47c0-1.104-1.045-2-2.334-2h-9.333C67.045,45,66,45.896,66,47v4c0,1.104,1.045,2,2.334,2
				h9.333C78.955,53,80,52.104,80,51V47z"/>
		</g>
		<g>
			<path style="fill:#FFAA00;" d="M62,59c0-1.104-1.045-2-2.333-2h-9.333C49.045,57,48,57.896,48,59v4c0,1.104,1.045,2,2.333,2
				h9.333C60.955,65,62,64.104,62,63V59z"/>
		</g>
	</g>
</g>
</svg>
