<?xml version="1.0" encoding="iso-8859-1"?>
<!-- Generator: Adobe Illustrator 17.1.0, SVG Export Plug-In . SVG Version: 6.00 Build 0)  -->
<!DOCTYPE svg PUBLIC "-//W3C//DTD SVG 1.0//EN" "http://www.w3.org/TR/2001/REC-SVG-20010904/DTD/svg10.dtd">
<svg version="1.0" xmlns="http://www.w3.org/2000/svg" xmlns:xlink="http://www.w3.org/1999/xlink" x="0px" y="0px" width="110px"
	 height="110px" viewBox="0 0 110 110" style="enable-background:new 0 0 110 110;" xml:space="preserve">
<g id="Artboard">
</g>
<g id="Multicolor">
	<circle style="fill:#E04F5F;" cx="55" cy="55" r="55"/>
	<g>
		<path style="fill:#FFFFFF;" d="M23,26.84c0-2.121,1.719-3.84,3.84-3.84H55l16,13.44v46.72c0,2.121-1.719,3.84-3.84,3.84H26.84
			C24.719,87,23,85.281,23,83.16V26.84z"/>
		<path style="fill:#F0F1F1;" d="M55,23v9.6c0,2.121,1.719,3.84,3.84,3.84H71L55,23z"/>
		<polygon style="fill:#F4D0A1;" points="77,41.5 82,31 87,41.5 87,80 77,80 		"/>
		<polygon style="fill:#EDBC7C;" points="87,47 87,41.5 82,31 82,47 		"/>
		<path style="fill:#F79392;" d="M87,84c0,1.657-1.343,3-3,3h-4c-1.657,0-3-1.343-3-3v-2h10V84z"/>
		<path style="fill:#E2E4E5;" d="M62,45c0,0.55-0.45,1-1,1H46c-0.55,0-1-0.45-1-1l0,0c0-0.55,0.45-1,1-1h15C61.55,44,62,44.45,62,45
			L62,45z"/>
		<path style="fill:#E2E4E5;" d="M56,50c0,0.55-0.45,1-1,1h-9c-0.55,0-1-0.45-1-1l0,0c0-0.55,0.45-1,1-1h9C55.55,49,56,49.45,56,50
			L56,50z"/>
		<path style="fill:#E2E4E5;" d="M62,58c0,0.55-0.45,1-1,1H46c-0.55,0-1-0.45-1-1l0,0c0-0.55,0.45-1,1-1h15C61.55,57,62,57.45,62,58
			L62,58z"/>
		<path style="fill:#E2E4E5;" d="M56,63c0,0.55-0.45,1-1,1h-9c-0.55,0-1-0.45-1-1l0,0c0-0.55,0.45-1,1-1h9C55.55,62,56,62.45,56,63
			L56,63z"/>
		<path style="fill:#E2E4E5;" d="M62,71c0,0.55-0.45,1-1,1H46c-0.55,0-1-0.45-1-1l0,0c0-0.55,0.45-1,1-1h15C61.55,70,62,70.45,62,71
			L62,71z"/>
		<path style="fill:#E2E4E5;" d="M56,76c0,0.55-0.45,1-1,1h-9c-0.55,0-1-0.45-1-1l0,0c0-0.55,0.45-1,1-1h9C55.55,75,56,75.45,56,76
			L56,76z"/>
		<g>
			<path style="fill:#17B198;" d="M35.067,52l-3.774-3.774c-0.391-0.39-0.391-1.024,0-1.414c0.391-0.391,1.024-0.391,1.414,0
				l2.226,2.226l4.299-5.159c0.354-0.425,0.984-0.482,1.408-0.128c0.424,0.354,0.482,0.984,0.128,1.408L35.067,52z"/>
		</g>
		<g>
			<path style="fill:#17B198;" d="M35.067,65l-3.774-3.774c-0.391-0.39-0.391-1.024,0-1.414c0.391-0.391,1.024-0.391,1.414,0
				l2.226,2.226l4.299-5.159c0.354-0.425,0.984-0.482,1.408-0.128c0.424,0.354,0.482,0.984,0.128,1.408L35.067,65z"/>
		</g>
		<g>
			<path style="fill:#17B198;" d="M35.067,78l-3.774-3.774c-0.391-0.39-0.391-1.024,0-1.414c0.391-0.391,1.024-0.391,1.414,0
				l2.226,2.226l4.299-5.159c0.354-0.425,0.984-0.482,1.408-0.128c0.424,0.354,0.482,0.984,0.128,1.408L35.067,78z"/>
		</g>
		<rect x="77" y="79" style="fill:#FACB1B;" width="10" height="3"/>
		<rect x="77" y="80" style="fill:#FBE158;" width="5" height="2"/>
		<path style="fill:#3E3E3F;" d="M82.013,30.984l-1.857,3.899c0.512,0.678,1.152,1.101,1.857,1.101s1.345-0.422,1.857-1.101
			L82.013,30.984z"/>
		<path style="fill:#0484AB;" d="M84.5,43c-1.154,0-2.126-0.782-2.413-1.845c-0.026-0.097-0.147-0.097-0.173,0
			C81.626,42.218,80.654,43,79.5,43c-1.052,0-1.953-0.65-2.322-1.571C77.139,41.332,77,41.359,77,41.464V80h10V41.464
			c0-0.105-0.139-0.131-0.178-0.034C86.453,42.35,85.552,43,84.5,43z"/>
		<path style="fill:#21B2D1;" d="M77,80V41.493c0-0.111,0.147-0.139,0.19-0.036C77.565,42.363,78.458,43,79.5,43
			c1.159,0,2.134-0.789,2.417-1.859C81.931,41.089,82,41.096,82,41.15V80H77z"/>
		<path style="fill:#F7B4B4;" d="M77,82v2c0,1.657,1.343,3,3,3h2v-5H77z"/>
	</g>
</g>
</svg>
