<?xml version="1.0" encoding="iso-8859-1"?>
<!-- Generator: Adobe Illustrator 17.1.0, SVG Export Plug-In . SVG Version: 6.00 Build 0)  -->
<!DOCTYPE svg PUBLIC "-//W3C//DTD SVG 1.0//EN" "http://www.w3.org/TR/2001/REC-SVG-20010904/DTD/svg10.dtd">
<svg version="1.0" xmlns="http://www.w3.org/2000/svg" xmlns:xlink="http://www.w3.org/1999/xlink" x="0px" y="0px" width="110px"
	 height="110px" viewBox="0 0 110 110" style="enable-background:new 0 0 110 110;" xml:space="preserve">
<g id="Artboard">
</g>
<g id="Multicolor">
	<circle style="fill:#32BEA6;" cx="55" cy="55" r="55"/>
	<g>
		<g>
			<path style="fill:#FFFFFF;" d="M23,26.84c0-2.121,1.719-3.84,3.84-3.84H55l16,13.44v46.72c0,2.121-1.719,3.84-3.84,3.84H26.84
				C24.719,87,23,85.281,23,83.16V26.84z"/>
			<path style="fill:#F0F1F1;" d="M55,23v9.6c0,2.121,1.719,3.84,3.84,3.84H71L55,23z"/>
		</g>
		<path style="fill:#E2E4E5;" d="M52,70h10c0.551,0,1-0.448,1-1v-5c0-0.552-0.449-1-1-1H52c-0.551,0-1,0.448-1,1v5
			C51,69.552,51.449,70,52,70z"/>
		<path style="fill:#B6BCBD;" d="M62,72H52c-1.654,0-3-1.346-3-3v-5c0-1.654,1.346-3,3-3h10c1.654,0,3,1.346,3,3v5
			C65,70.654,63.654,72,62,72z M52,63c-0.551,0-1,0.448-1,1v5c0,0.552,0.449,1,1,1h10c0.551,0,1-0.448,1-1v-5c0-0.552-0.449-1-1-1
			H52z"/>
		<path style="fill:#E2E4E5;" d="M30,70h10c0.551,0,1-0.448,1-1v-5c0-0.552-0.449-1-1-1H30c-0.551,0-1,0.448-1,1v5
			C29,69.552,29.449,70,30,70z"/>
		<path style="fill:#B6BCBD;" d="M40,72H30c-1.654,0-3-1.346-3-3v-5c0-1.654,1.346-3,3-3h10c1.654,0,3,1.346,3,3v5
			C43,70.654,41.654,72,40,72z M30,63c-0.551,0-1,0.448-1,1v5c0,0.552,0.449,1,1,1h10c0.551,0,1-0.448,1-1v-5c0-0.552-0.449-1-1-1
			H30z"/>
		<path style="fill:#9CE5F4;" d="M41,50h10c0.551,0,1-0.448,1-1v-5c0-0.552-0.449-1-1-1H41c-0.551,0-1,0.448-1,1v5
			C40,49.552,40.449,50,41,50z"/>
		<g>
			<polygon style="fill:#CFD3D4;" points="50.272,52 48.014,52 52.728,61 54.986,61 			"/>
		</g>
		<g>
			<polygon style="fill:#CFD3D4;" points="41.728,52 37.014,61 39.272,61 43.986,52 			"/>
		</g>
		<path style="fill:#40C9E7;" d="M51,52H41c-1.654,0-3-1.346-3-3v-5c0-1.654,1.346-3,3-3h10c1.654,0,3,1.346,3,3v5
			C54,50.654,52.654,52,51,52z M41,43c-0.551,0-1,0.448-1,1v5c0,0.552,0.449,1,1,1h10c0.551,0,1-0.448,1-1v-5c0-0.552-0.449-1-1-1
			H41z"/>
		<g>
			<path style="fill:#F4D0A1;" d="M84.144,57.498L62.941,81.466l-5.877,1.21c-0.17-0.818-0.593-1.593-1.267-2.189
				c-0.674-0.596-1.495-0.922-2.328-0.991l0.484-5.981l21.203-23.967L84.144,57.498z"/>
		</g>
		<g>
			<path style="fill:#059BBF;" d="M84.115,57.473c0.016,0.014,0.017,0.038,0.003,0.054L63.397,80.95
				c-0.033,0.038-0.086-0.002-0.062-0.047c0.651-1.2,0.414-2.728-0.653-3.672c-1.126-0.996-2.785-0.995-3.905-0.062
				c-0.032,0.027-0.075-0.011-0.052-0.046c0.79-1.225,0.589-2.871-0.537-3.868c-1.079-0.955-2.648-0.993-3.762-0.173
				c-0.036,0.027-0.077-0.015-0.047-0.049l20.752-23.458c0.014-0.016,0.038-0.017,0.054-0.003L84.115,57.473z"/>
		</g>
		<g>
			
				<rect x="74.313" y="51.774" transform="matrix(0.749 0.6626 -0.6626 0.749 55.1274 -39.9673)" style="fill:#FACB1B;" width="12" height="2"/>
		</g>
		<g>
			<path style="fill:#F79392;" d="M84.996,47.571l-0.09-0.08c-2.457-2.174-6.211-1.944-8.385,0.513l-0.04,0.045L85.469,56
				l0.04-0.045C87.683,53.498,87.453,49.744,84.996,47.571z"/>
		</g>
		<g>
			<path style="fill:#0484AB;" d="M84.119,57.527L63.371,80.979c-0.03,0.034-0.077-0.002-0.055-0.042
				c0.674-1.205,0.444-2.753-0.634-3.707c-1.124-0.994-2.777-0.995-3.897-0.068c-0.019,0.015-0.041-0.008-0.025-0.026l20.865-23.586
				c0.014-0.016,0.038-0.017,0.053-0.003l4.437,3.925C84.131,57.487,84.133,57.511,84.119,57.527z"/>
		</g>
		<g>
			<path style="fill:#3E3E3F;" d="M57.064,82.675l-3.918,0.807l0.323-3.987c0.833,0.069,1.654,0.395,2.328,0.991
				C56.471,81.082,56.894,81.857,57.064,82.675z"/>
		</g>
	</g>
</g>
</svg>
