<svg version="1.0" xmlns="http://www.w3.org/2000/svg" width="110" height="110" viewBox="0 0 110 110"><circle cx="55" cy="55" r="55" fill="#25b7d3"/><path d="M87 73.727a2.908 2.908 0 0 1-2.909 2.909H25.909A2.908 2.908 0 0 1 23 73.727V33a2.908 2.908 0 0 1 2.909-2.909h58.182A2.908 2.908 0 0 1 87 33v40.727z" fill="#3e3e3f"/><path fill="#e2e4e5" d="M46.273 76.636h17.455v7.455H46.273z"/><path d="M69.545 85.545c0 .803-.651 1.455-1.455 1.455H41.909a1.455 1.455 0 0 1 0-2.91h26.182a1.456 1.456 0 0 1 1.454 1.455z" fill="#f0f1f1"/><path d="M87 73.727V65H23v8.727a2.91 2.91 0 0 0 2.909 2.909h58.182A2.91 2.91 0 0 0 87 73.727z" fill="#fff"/><path d="M55 74.909A3.913 3.913 0 0 1 51.091 71c0-2.155 1.754-3.909 3.909-3.909s3.909 1.753 3.909 3.909A3.913 3.913 0 0 1 55 74.909zm0-5.818A1.91 1.91 0 0 0 53.091 71c0 1.053.856 1.909 1.909 1.909s1.909-.856 1.909-1.909A1.911 1.911 0 0 0 55 69.091z" fill="#cfd3d4"/><path d="M23 32.909v32h19.724L77.633 30H25.909A2.91 2.91 0 0 0 23 32.909z" fill="#5b5c5f"/><path d="M30.414 37.489c0-1.104.378-1.724 1.104-1.724.727 0 1.104.62 1.104 1.724 0 1.109-.378 1.729-1.104 1.729-.726 0-1.104-.62-1.104-1.729zm1.749 0c0-.974-.237-1.371-.644-1.371-.402 0-.644.397-.644 1.371 0 .979.242 1.376.644 1.376.406-.001.644-.398.644-1.376zm-.645-.315c.184 0 .32.14.32.315 0 .179-.136.32-.32.32a.313.313 0 0 1-.315-.32c0-.175.136-.315.315-.315zm2.89-.862l-.799.484-.213-.31 1.066-.664h.392v2.979h.683v.359H33.59v-.359h.819v-2.489zm6.652-.039l.213.334-1.695 1.037 1.695 1.041-.233.325-1.846-1.153v-.431l1.866-1.153zm2.682 2.887v-1.564h-1.211v1.564h-.46v-3.337h.46v1.395h1.211v-1.395h.46v3.337h-.46zm2.522-2.95v2.95h-.46v-2.95h-1.032v-.387h2.538l-.048.387h-.998zm3.558 2.95l-.097-1.71a17.205 17.205 0 0 1-.019-1.119h-.015l-.528 2.233h-.441l-.552-2.233h-.019c0 .111.01.688-.01 1.119l-.082 1.71h-.426l.189-3.337h.61l.514 2.228h.019l.489-2.228h.615l.189 3.337h-.436zm1.209 0v-3.337h.46v2.935h1.516l-.053.402h-1.923zm4.765-1.734v.431L53.95 39.01l-.233-.325 1.695-1.041-1.695-1.037.213-.334 1.866 1.153zm-25.382 5.872c0-1.104.378-1.724 1.104-1.724.727 0 1.104.62 1.104 1.724 0 1.109-.378 1.729-1.104 1.729-.726 0-1.104-.62-1.104-1.729zm1.749 0c0-.974-.237-1.371-.644-1.371-.402 0-.644.397-.644 1.371 0 .979.242 1.376.644 1.376.406-.001.644-.398.644-1.376zm-.645-.315c.184 0 .32.14.32.315 0 .179-.136.32-.32.32a.313.313 0 0 1-.315-.32c0-.175.136-.315.315-.315zm2.377 1.613h1.516l-.053.373h-1.986v-.354c1.153-1.143 1.507-1.604 1.507-2.107 0-.359-.242-.562-.567-.562-.276 0-.465.102-.669.358l-.31-.218c.262-.324.591-.514 1.003-.514.61 0 1.003.388 1.003.921-.001.582-.461 1.163-1.444 2.103zm7.165-2.514l.213.334-1.695 1.037 1.695 1.041-.233.325-1.846-1.153v-.431l1.866-1.153zm1.989 2.887h-.92v-3.337h.848c.596 0 1.192.189 1.192.843 0 .426-.3.649-.581.712v.019c.334.063.727.257.727.809-.002.731-.641.954-1.266.954zm.01-2.974h-.47v1.046h.509c.388 0 .601-.16.601-.538-.001-.368-.243-.508-.64-.508zm.072 1.414h-.543v1.187h.523c.325 0 .717-.092.717-.572.001-.489-.314-.615-.697-.615zm2.91 1.618c-.819 0-1.24-.683-1.24-1.719 0-1.017.421-1.734 1.24-1.734s1.24.693 1.24 1.729c0 1.017-.422 1.724-1.24 1.724zm0-3.076c-.543 0-.761.475-.761 1.356s.233 1.342.761 1.342c.543 0 .76-.465.76-1.347 0-.881-.218-1.351-.76-1.351zm2.618 3.018h-.78v-3.337h.727c.79 0 1.574.266 1.574 1.652 0 1.394-.813 1.685-1.521 1.685zM48.708 42h-.368v2.606h.373c.475 0 .978-.242.978-1.322 0-1.134-.528-1.284-.983-1.284zm3.374 1.685v1.284h-.465V43.69l-1.124-2.059h.509l.853 1.632h.015l.857-1.632h.479l-1.124 2.054zm3.714-.45v.431l-1.846 1.153-.233-.325 1.695-1.041-1.695-1.037.213-.334 1.866 1.153zm-25.382 5.872c0-1.104.378-1.724 1.104-1.724.727 0 1.104.62 1.104 1.724 0 1.109-.378 1.729-1.104 1.729-.726 0-1.104-.62-1.104-1.729zm1.749 0c0-.974-.237-1.371-.644-1.371-.402 0-.644.397-.644 1.371 0 .979.242 1.376.644 1.376.406-.001.644-.398.644-1.376zm-.645-.315c.184 0 .32.14.32.315 0 .179-.136.32-.32.32a.313.313 0 0 1-.315-.32c0-.175.136-.315.315-.315zm2.774 2.044c-.388 0-.785-.14-1.041-.45l.29-.242a.958.958 0 0 0 .736.329c.45 0 .722-.252.722-.659 0-.465-.286-.62-.678-.62h-.257l.053-.344h.175c.32 0 .62-.179.62-.567 0-.354-.271-.548-.615-.548-.286 0-.484.102-.702.305l-.242-.266c.286-.271.615-.393.969-.393.639 0 1.037.383 1.037.838 0 .407-.3.708-.634.771v.019a.78.78 0 0 1 .741.809c-.002.577-.472 1.018-1.174 1.018zm6.768-2.945l.213.334-1.695 1.037 1.695 1.041-.233.325-1.846-1.153v-.431l1.866-1.153zm2.682 2.887v-1.564h-1.211v1.564h-.46V47.44h.46v1.395h1.211V47.44h.46v3.337h-.46zm1.848-2.97v1.09h1.23v.368h-1.23v1.148h1.507v.363H45.13V47.44h1.928l-.053.368H45.59zm3.985 2.132h-1.284l-.257.838h-.46l1.08-3.337h.581l1.08 3.337h-.484l-.256-.838zm-1.172-.373h1.061l-.518-1.71h-.019l-.524 1.71zm3.161 1.211h-.78V47.44h.727c.79 0 1.574.266 1.574 1.652 0 1.395-.814 1.686-1.521 1.686zm.048-2.97h-.368v2.606h.373c.475 0 .978-.242.978-1.322.001-1.133-.527-1.284-.983-1.284zm2.692 0v1.09h1.23v.368h-1.23v1.148h1.507v.363h-1.967V47.44h1.928l-.053.368h-1.415zm3.718 1.498L59 50.778h-.547l-.891-1.414h-.426v1.414h-.46V47.44h.877c.833 0 1.269.319 1.269.944-.001.5-.35.805-.8.922zm-.427-1.507h-.46v1.211h.465c.465 0 .731-.174.731-.625.001-.417-.237-.586-.736-.586zm4.01 1.245v.431l-1.846 1.153-.233-.325 1.695-1.041-1.695-1.037.213-.334 1.866 1.153zm-31.191 5.872c0-1.104.378-1.724 1.104-1.724.727 0 1.104.62 1.104 1.724 0 1.109-.378 1.729-1.104 1.729-.726 0-1.104-.62-1.104-1.729zm1.749 0c0-.974-.237-1.371-.644-1.371-.402 0-.644.397-.644 1.371 0 .979.242 1.376.644 1.376.406 0 .644-.398.644-1.376zm-.645-.315c.184 0 .32.14.32.315 0 .179-.136.32-.32.32a.313.313 0 0 1-.315-.32c0-.174.136-.315.315-.315zm3.583 1.187v.799h-.431v-.799h-1.366v-.315l.978-2.282.373.155-.882 2.088h.896l.044-.872h.387v.872h.421v.354h-.42zM41.06 53.7l.213.334-1.695 1.037 1.695 1.041-.233.325-1.846-1.153v-.431L41.06 53.7zm1.224 3.391l-.359-.16 2.068-4.267.354.17-2.063 4.257zm4.362-.504v-1.564h-1.211v1.564h-.46V53.25h.46v1.395h1.211V53.25h.46v3.337h-.46zm1.849-2.969v1.09h1.23v.368h-1.23v1.148h1.507v.363h-1.967V53.25h1.928l-.053.368h-1.415zm3.984 2.131h-1.284l-.257.838h-.46l1.08-3.337h.581l1.08 3.337h-.484l-.256-.838zm-1.172-.373h1.061l-.518-1.71h-.02l-.523 1.71zm3.161 1.211h-.78V53.25h.727c.79 0 1.574.266 1.574 1.652 0 1.395-.813 1.685-1.521 1.685zm.049-2.969h-.368v2.606h.373c.475 0 .978-.242.978-1.322 0-1.134-.528-1.284-.983-1.284zm2.691 0v1.09h1.23v.368h-1.23v1.148h1.507v.363h-1.967V53.25h1.928l-.053.368h-1.415zm3.718 1.496l.979 1.473h-.547l-.891-1.414h-.427v1.414h-.46V53.25h.877c.833 0 1.269.319 1.269.944 0 .499-.349.804-.8.92zm-.426-1.506h-.46v1.211h.465c.465 0 .731-.174.731-.625 0-.416-.237-.586-.736-.586zm4.009 1.245v.431l-1.846 1.153-.233-.325 1.695-1.041-1.695-1.037.213-.334 1.866 1.153z" fill="#fff"/></svg>