<svg xmlns="http://www.w3.org/2000/svg" viewBox="0 0 332.972 316.891" height="338.017" width="355.17"><defs><clipPath clipPathUnits="userSpaceOnUse" id="a"/></defs><g transform="translate(-290.5 -325.712)"><ellipse ry="150.499" rx="155.894" cx="467.579" cy="492.105" fill="#607d8b"/><ellipse ry="150.499" rx="155.894" cx="446.737" cy="479.047" fill="#ffe680"/><ellipse cy="363.995" cx="329.518" rx="39.013" ry="37.663" clip-path="url(#a)" transform="translate(-870.327 -975.819) scale(3.99595)" fill-opacity=".299"/></g><g fill="#607d8b" stroke="#fff"><text transform="matrix(1.01977 0 0 .9806 -290.5 -325.712)" y="535.343" x="464.835" style="line-height:125%" font-weight="400" font-size="82.424" font-family="sans-serif" letter-spacing="0" word-spacing="0" stroke-width="3.996"><tspan style="-inkscape-font-specification:'Corbel Bold'" y="535.343" x="464.835" font-weight="700" font-size="144.242" font-family="Corbel">S</tspan></text><g style="line-height:125%"><path style="-inkscape-font-specification:'Corbel Bold'" d="M329.343 383.843l-.266 3.305c-61.317 7.315-50.909-67.917-1.023-51.38l-1.27 2.214c-41.039-12.634-50.598 52.623 2.56 45.861z" font-weight="700" font-size="98.432" font-family="Corbel" transform="matrix(3.92712 -.08932 .10415 4.06362 -1161.755 -1302.944)" letter-spacing="0" word-spacing="0"/></g><path d="M69.05 87.387l-2.35 14.085 79.416 103.606L239.73 2.031l-47.704.5-59.764 156.787z" fill-rule="evenodd" stroke-width="3.996"/></g></svg>