<svg version="1.0" xmlns="http://www.w3.org/2000/svg" width="110" height="110" viewBox="0 0 110 110"><circle cx="55" cy="55" r="55" fill="#25b7d3"/><path d="M83.485 66.502c-3.139-3.139-7.582-4.164-11.583-3.098L50.167 41.67c1.747-4.929.664-10.637-3.28-14.582-3.947-3.947-9.659-5.029-14.591-3.277l10.348 10.348v5.657l-2.828 2.828h-5.657L23.811 32.296c-1.751 4.932-.669 10.644 3.277 14.591 3.949 3.949 9.666 5.03 14.6 3.274l21.728 21.728c-1.066 4.002-.041 8.445 3.098 11.584 4.686 4.686 12.284 4.686 16.971 0 4.687-4.686 4.687-12.284 0-16.971zm-6.619 15.451l-6.965-1.866-1.866-6.965 5.099-5.099 6.965 1.866 1.866 6.965-5.099 5.099z" fill="#e2e4e5"/><path d="M71.902 63.404L50.167 41.67c1.747-4.929.664-10.637-3.28-14.582-3.947-3.947-9.659-5.029-14.591-3.277l10.348 10.348v5.657l-1.355 1.355 29.348 29.348 2.497-2.497 6.965 1.866 1.866 6.965-2.497 2.497 4.067 4.067c4.633-4.69 4.619-12.247-.05-16.916-3.139-3.138-7.582-4.163-11.583-3.097z" fill="#fff"/><path d="M53.788 68.08a3.006 3.006 0 0 0 .778-2.899 2.997 2.997 0 0 1 .777-2.899l2.828-2.828a.999.999 0 0 0 0-1.414l-5.657-5.657a.999.999 0 0 0-1.414 0l-2.828 2.828a3.001 3.001 0 0 1-2.899.777 3.003 3.003 0 0 0-2.899.778L24.23 75.01c-3.536 3.536 7.778 14.849 11.314 11.314L53.788 68.08z" fill="#df2c2c"/><path fill="#e2e4e5" d="M83.187 24.539l-12.021 6.364-.707 4.95L53.222 53.09l4.242 4.243 17.238-17.238 4.879-.636 6.514-12.012z"/><path fill="#fff" d="M83.187 24.539l-12.021 6.364-.707 4.95L53.222 53.09l2.344 2.344 29.258-29.258z"/><path d="M52.515 52.383a.999.999 0 0 0-1.414 0l-2.829 2.829a2.996 2.996 0 0 1-2.899.776 3.004 3.004 0 0 0-2.899.779L24.23 75.01c-1.814 1.814.284 5.674 3.232 8.527l28.104-28.103-3.051-3.051z" fill="#fa5655"/></svg>