<svg version="1.0" xmlns="http://www.w3.org/2000/svg" width="110" height="110" viewBox="0 0 110 110"><circle cx="55" cy="55" r="55" fill="#e04f5f"/><path d="M67 39.005c0 6-6 11-12 16s-12 10-12 16c0 12 12 16 12 16-17.67 0-32-14.33-32-32s14.33-32 32-32c0 0 12 4 12 16z" fill="#e2e4e5"/><path d="M87 55.005c0 17.67-14.33 32-32 32 0 0-12-4-12-16 0-6 6-11 12-16s12-10 12-16c0-12-12-16-12-16 17.67 0 32 14.33 32 32z" fill="#3e3e3f"/><path d="M55 55.005c6-5 12-10 12-16 0-12-12-16-12-16-17.67 0-32 14.33-32 32 0 9.725 4.347 18.432 11.196 24.302l8.837-8.837C43.378 64.707 49.18 59.854 55 55.005z" fill="#fff"/><circle cx="55" cy="71.005" r="6" fill="#fff"/><circle cx="55" cy="39.005" r="6" fill="#5b5c5f"/><path d="M55 55.005c-5.82 4.85-11.622 9.702-11.967 15.464L79.301 34.2C73.432 27.351 64.725 23.005 55 23.005c0 0 12 4 12 16 0 6-6 11-12 16z" fill="#5b5c5f"/></svg>