<svg version="1.0" xmlns="http://www.w3.org/2000/svg" width="110" height="110" viewBox="0 0 110 110"><circle cx="55" cy="55" r="55" fill="#32bea6"/><path fill="#fff" d="M37 27h50v60H37z"/><path d="M65.724 73a8 8 0 0 0 8 8c4.418 0 8.416-3.601 8-8-.423-4.476-3.893-8.042-8-8-4.418.046-8 3.582-8 8z" fill="#fbe158"/><path d="M65.724 73c0 4.42 3.58 8 8 8a8 8 0 0 0 7.42-5l-14.78-6.153a8.005 8.005 0 0 0-.64 3.153z" fill="#059bbf"/><path d="M65.712 73.003a8 8 0 0 0 3.667 6.727l4.327-6.82-7.353-3.06a7.991 7.991 0 0 0-.641 3.153z" fill="#4ac3af"/><path d="M66.364 69.847l7.36 3.067V65c-3.3 0-6.133 2-7.36 4.847z" fill="#fa5655"/><path fill="#4ac3af" d="M77 40h4v18h-4zm-7.288 8h4v10h-4z"/><g fill="#cfd3d4"><circle cx="60.333" cy="68.167" r="1.5"/><path d="M46.712 67.667h10v1h-10z"/></g><g fill="#cfd3d4"><circle cx="60.333" cy="73.333" r="1.5"/><path d="M46.712 72.833h10v1h-10z"/></g><g fill="#cfd3d4"><circle cx="60.333" cy="78.5" r="1.5"/><path d="M46.712 78h10v1h-10z"/></g><path d="M39.742 58.021L28.944 68.819a3.441 3.441 0 1 1-4.867-4.867L34.9 53.131a14.472 14.472 0 0 0 4.842 4.89z" fill="#84462d"/><path d="M36.992 55.826L24.041 68.777a3.439 3.439 0 0 1 .03-4.824L34.9 53.125a14.773 14.773 0 0 0 2.092 2.701z" fill="#9c6144"/><path d="M47.4 60.1c-7.995 0-14.5-6.505-14.5-14.5s6.505-14.5 14.5-14.5 14.5 6.505 14.5 14.5-6.504 14.5-14.5 14.5z" fill="#fff"/><path d="M47.4 31.088c8.012 0 14.512 6.5 14.512 14.512s-6.5 14.512-14.512 14.512c-8.041 0-14.512-6.561-14.512-14.512 0-8.012 6.5-14.512 14.512-14.512m0-1.988c-9.098 0-16.5 7.402-16.5 16.5s7.402 16.5 16.5 16.5 16.5-7.402 16.5-16.5-7.401-16.5-16.5-16.5z" fill="#cfd3d4"/><circle cx="47.4" cy="45.6" r="11.558" fill="#6fdaf1"/><path d="M47.4 34.042c-6.383 0-11.558 5.175-11.558 11.558 0 3.158 1.27 6.018 3.323 8.104l16.339-16.339a11.511 11.511 0 0 0-8.104-3.323z" fill="#9ce5f4"/></svg>