<svg version="1.1" id="Ñëîé_1" xmlns="http://www.w3.org/2000/svg" xmlns:xlink="http://www.w3.org/1999/xlink" x="0" y="0" viewBox="0 0 260.8 155" xml:space="preserve"><style>.st0{fill:#751480}.st0,.st1,.st2,.st3{clip-path:url(#SVGID_2_)}.st1{fill:#761580}.st2{fill:#771680}.st3{fill:#781780}</style><defs><path id="SVGID_1_" d="M80.2 155L260.8 0 96 113.3z"/></defs><clipPath id="SVGID_2_"><use xlink:href="#SVGID_1_" overflow="visible"/></clipPath><path class="st0" d="M80.2 0h180.6v155H80.2z"/><path class="st0" d="M79.2 134.9V56.6h-6.1c12.3-24.1 30.2-45.8 52.3-64V-1h136.4v157H79.2v-21.1z"/><path class="st0" d="M79.2 134.9V57.2h-4.4c12.3-23.9 30-45.4 51.9-63.5V-1h135.1v157H79.2v-21.1z"/><path class="st1" d="M79.2 134.9V57.8h-2.7c12.2-23.7 29.8-45.1 51.5-63V-1h133.7v157H79.2v-21.1z"/><path class="st1" d="M79.2 134.9V58.4h-.9c12.1-23.5 29.5-44.7 51.1-62.5V-1h132.4v157H79.2v-21.1z"/><path class="st2" d="M79.2 134.9V67.8h-3.5c1.3-3 2.7-5.9 4.2-8.9 12-23.3 29.3-44.4 50.7-62V-1h131.1v157H79.2v-21.1z"/><path class="st2" d="M79.2 134.9V77.3h-5.4c2.3-6.1 4.9-12 7.9-17.8C93.6 36.4 110.8 15.5 132-2v1h129.8v157H79.2v-21.1z"/><path class="st3" d="M79.2 134.9V77.8h-3.6c2.3-6 4.9-11.9 7.8-17.6 11.8-23 28.8-43.7 49.9-61.1 2.6-2.2 5.3-4.3 8.1-6.4V-1h120.4v157H79.2v-21.1z"/><path class="st3" d="M79.2 134.9V78.3h-1.8c2.2-6 4.8-11.8 7.8-17.5C96.9 38 113.8 17.5 134.7.2c2.6-2.2 5.3-4.3 8-6.3V-1h119.1v157H79.2v-21.1z"/><path d="M79.2 134.9V96.8h-5.7c3.1-12.3 7.6-24.2 13.3-35.5 11.6-22.6 28.4-43 49.1-60.1 2.6-2.1 5.2-4.2 8-6.3v4h117.9v157H79.2v-21z" clip-path="url(#SVGID_2_)" fill="#791881"/><path d="M79.2 134.9V97.1h-3.9c3-12.2 7.5-24 13.2-35.2 11.5-22.4 28.1-42.6 48.7-59.6 2.6-2.1 5.2-4.2 7.9-6.2V-1h116.6v157H79.2v-21.1z" clip-path="url(#SVGID_2_)" fill="#7a1881"/><path d="M72.6 134.9c0-51.3 25.2-97.8 66-131.5 2.5-2.1 5.2-4.2 7.8-6.2V-1h115.4v157H79.2v-21.1h-6.6z" clip-path="url(#SVGID_2_)" fill="#7a1981"/><path d="M74.5 134.9c0-50.9 25-97 65.5-130.4 5.1-4.2 10.4-8.1 15.9-11.9V-1h106v157H79.2v-21.1h-4.7z" clip-path="url(#SVGID_2_)" fill="#7b1981"/><path d="M76.3 134.9c0-50.5 24.8-96.2 64.9-129.3 5-4.1 10.3-8.1 15.7-11.8V-1h104.8v157H79.2v-21.1h-2.9z" clip-path="url(#SVGID_2_)" fill="#7c1a81"/><path d="M78.2 134.9c0-50.1 24.6-95.4 64.4-128.2 5-4.1 10.2-8 15.6-11.7v4h103.7v157H80.7v6.6c-.6-3-1-6-1.4-9.1-.7-6.1-1.1-12.3-1.1-18.6z" clip-path="url(#SVGID_2_)" fill="#7c1b81"/><path d="M80 134.9c0-49.7 24.4-94.6 63.8-127.1 4.9-4.1 10.1-7.9 15.5-11.6V-1h102.5v157H82.6v6.3c-.6-3-1-6-1.4-9-.8-6-1.2-12.2-1.2-18.4z" clip-path="url(#SVGID_2_)" fill="#7d1b81"/><path d="M81.9 134.9c0-49.2 24.2-93.8 63.3-126.1 4.9-4 10-7.9 15.3-11.5V-1h101.3v157H84.4v6.1c-.5-3-1-5.9-1.4-8.9-.7-6-1.1-12.1-1.1-18.3z" clip-path="url(#SVGID_2_)" fill="#7e1c81"/><path d="M83.8 134.9c0-48.8 24-93 62.7-125 4.8-4 9.9-7.8 15.2-11.4v.5h100.1v157H86.2v5.8c-.5-2.9-1-5.9-1.4-8.8-.7-6-1-12-1-18.1z" clip-path="url(#SVGID_2_)" fill="#7f1d81"/><path d="M85.6 134.9c0-48.4 23.8-92.2 62.2-123.9 4.8-4 9.8-7.7 15.1-11.3 2.6-1.8 5.3-3.5 8-5.2V-1h90.9v157H88.1v5.6c-.5-2.9-1-5.8-1.4-8.8-.7-5.9-1.1-11.8-1.1-17.9z" clip-path="url(#SVGID_2_)" fill="#7f1d82"/><path d="M87.5 134.9c0-48 23.6-91.4 61.6-122.8 4.8-3.9 9.7-7.7 14.9-11.2 2.6-1.8 5.3-3.5 8-5.2V-1h89.8v157H89.9v5.4c-.5-2.9-1-5.8-1.3-8.7-.7-5.9-1.1-11.8-1.1-17.8z" clip-path="url(#SVGID_2_)" fill="#801e82"/><path d="M89.4 134.9c0-47.5 23.4-90.6 61.1-121.7 9.4-7.8 19.8-14.8 30.9-21V-1h80.5v157H91.8v5.1c-.5-2.8-1-5.7-1.3-8.6-.8-5.8-1.1-11.6-1.1-17.6z" clip-path="url(#SVGID_2_)" fill="#811f82"/><path d="M91.2 134.9c0-47.1 23.1-89.8 60.6-120.6 9.4-7.7 19.6-14.7 30.6-20.8V-1h79.4v157H93.6v4.9c-.5-2.8-1-5.7-1.3-8.5-.7-5.8-1.1-11.6-1.1-17.5z" clip-path="url(#SVGID_2_)" fill="#822082"/><path d="M93.1 134.9c0-46.7 22.9-88.9 60-119.5 9.3-7.6 19.4-14.6 30.3-20.6V-1h78.4v157H95.4v4.7c-.5-2.8-1-5.6-1.3-8.5-.7-5.7-1-11.4-1-17.3z" clip-path="url(#SVGID_2_)" fill="#832082"/><path d="M94.9 134.9c0-46.3 22.7-88.1 59.5-118.4 9.2-7.6 19.2-14.4 30-20.5v3h77.4v157H97.3v4.4c-.5-2.8-.9-5.6-1.3-8.4-.7-5.6-1.1-11.3-1.1-17.1z" clip-path="url(#SVGID_2_)" fill="#832182"/><path d="M96.8 134.9c0-45.8 22.5-87.3 58.9-117.4 9.1-7.5 19.1-14.3 29.8-20.3V-1h76.3v157H99.1v4.2c-.5-2.7-.9-5.5-1.3-8.3-.6-5.6-1-11.3-1-17z" clip-path="url(#SVGID_2_)" fill="#842282"/><path d="M98.7 134.9c0-45.4 22.3-86.5 58.4-116.3 9-7.4 18.9-14.2 29.5-20.1v.5h75.3v157H101v4c-.5-2.7-.9-5.5-1.3-8.2-.7-5.6-1-11.2-1-16.9z" clip-path="url(#SVGID_2_)" fill="#852282"/><path d="M100.5 134.9c0-45 22.1-85.7 57.8-115.2 8.9-7.4 18.7-14 29.2-19.9 2.6-1.5 5.3-2.9 8-4.2V-1h66.2v157h-159v3.7c-.5-2.7-.9-5.4-1.3-8.2-.5-5.4-.9-11-.9-16.6z" clip-path="url(#SVGID_2_)" fill="#862382"/><path d="M102.4 134.9c0-44.6 21.9-84.9 57.3-114.1 8.8-7.3 18.5-13.9 28.9-19.7 5.2-2.9 10.6-5.6 16.1-8.1v6h57.1v157H104.7v3.5c-.5-2.7-.9-5.4-1.2-8.1-.8-5.4-1.1-10.9-1.1-16.5z" clip-path="url(#SVGID_2_)" fill="#872483"/><path d="M104.3 134.9c0-44.1 21.7-84.1 56.7-113 8.8-7.2 18.4-13.8 28.7-19.5 5.2-2.9 10.5-5.5 16-8V-1h56.2v157H106.5v3.3c-.5-2.6-.9-5.3-1.2-8-.7-5.4-1-10.9-1-16.4z" clip-path="url(#SVGID_2_)" fill="#872583"/><path d="M106.1 134.9c0-43.7 21.5-83.3 56.2-111.9 8.7-7.2 18.2-13.6 28.4-19.3 5.1-2.8 10.4-5.5 15.8-7.9V-1h55.3v157H108.3v3c-.5-2.6-.9-5.3-1.2-7.9-.6-5.3-1-10.7-1-16.2z" clip-path="url(#SVGID_2_)" fill="#882683"/><path d="M108 134.9c0-43.3 21.3-82.5 55.6-110.8 8.6-7.1 18-13.5 28.1-19.1 5.1-2.8 10.3-5.4 15.7-7.9V-1h54.4v157H110.2v2.8c-.5-2.6-.9-5.2-1.2-7.8-.7-5.3-1-10.7-1-16.1z" clip-path="url(#SVGID_2_)" fill="#892683"/><path d="M109.9 134.9C109.9 92 131 53.2 165 25.1c8.5-7 17.8-13.4 27.8-19 5-2.8 10.2-5.4 15.5-7.8v.7h53.5v157H112v2.6c-.5-2.6-.9-5.2-1.2-7.8-.6-5.2-.9-10.5-.9-15.9z" clip-path="url(#SVGID_2_)" fill="#8a2783"/><path d="M111.7 134.9c0-42.4 20.8-80.9 54.6-108.7C183.2 12.3 203.2 1 225.5-6.7V-1h36.3v157h-148v2.3c-.5-2.5-.9-5.1-1.2-7.7-.6-5.1-.9-10.4-.9-15.7z" clip-path="url(#SVGID_2_)" fill="#8b2883"/><path d="M113.6 134.9c0-42 20.6-80 54-107.6 16.7-13.8 36.6-24.9 58.6-32.6V-1h35.6v157H115.7v2.1c-.5-2.5-.9-5.1-1.2-7.6-.6-5.1-.9-10.3-.9-15.6z" clip-path="url(#SVGID_2_)" fill="#8c2983"/><path d="M115.4 134.9c0-41.6 20.4-79.2 53.5-106.5 16.5-13.6 36.2-24.7 58-32.3V-1h34.9v157H117.5v1.9c-.5-2.5-.8-5-1.2-7.5-.5-5.1-.9-10.3-.9-15.5z" clip-path="url(#SVGID_2_)" fill="#8d2a83"/><path d="M117.3 134.9c0-41.2 20.2-78.4 52.9-105.4C186.6 16 206 5.1 227.7-2.4V-1h34.2v157H119.4v1.6c-.5-2.5-.8-5-1.1-7.5-.7-5-1-10-1-15.2z" clip-path="url(#SVGID_2_)" fill="#8e2a84"/><path d="M119.2 134.9c0-40.7 20-77.6 52.4-104.3C187.7 17.3 207 6.4 228.4-1h33.4v157H121.2v1.4c-.5-2.4-.8-4.9-1.1-7.4-.6-5-.9-10-.9-15.1z" clip-path="url(#SVGID_2_)" fill="#8f2b84"/><path d="M121 134.9c0-40.3 19.8-76.8 51.8-103.2 16-13.2 35.1-23.9 56.2-31.3 5.3-1.8 10.7-3.5 16.3-4.9V-1h16.5v157H123.1v1.2c-.4-2.4-.8-4.9-1.1-7.3-.7-5-1-9.9-1-15z" clip-path="url(#SVGID_2_)" fill="#8f2c84"/><path d="M122.9 134.9c0-39.9 19.6-76 51.3-102.1 15.8-13.1 34.7-23.6 55.7-31 10.5-3.7 21.5-6.5 32.9-8.4l-1 5.6v157H124.9v.9c-.4-2.4-.8-4.8-1.1-7.2-.6-4.9-.9-9.8-.9-14.8z" clip-path="url(#SVGID_2_)" fill="#902d84"/><path d="M124.8 134.9c0-39.5 19.4-75.2 50.7-101.1 15.7-12.9 34.3-23.4 55.1-30.6 10.4-3.6 21.2-6.4 32.5-8.3L261.8-1v157H126.7v.7c-.4-2.4-.8-4.8-1.1-7.2-.5-4.8-.8-9.6-.8-14.6z" clip-path="url(#SVGID_2_)" fill="#912e84"/><path d="M126.6 134.9c0-39 19.2-74.4 50.2-100 15.5-12.8 34-23.1 54.5-30.3 10.3-3.6 21-6.4 32.2-8.2L261.8-1v157H128.6v.5c-.4-2.3-.8-4.7-1.1-7.1-.6-4.8-.9-9.6-.9-14.5z" clip-path="url(#SVGID_2_)" fill="#922f84"/><path d="M128.5 134.9c0-38.6 19-73.6 49.6-98.9 15.3-12.7 33.6-22.9 53.9-30 10.1-3.5 20.8-6.3 31.8-8.1l-2 1.1v157H130.4v.2c-.4-2.3-.8-4.6-1.1-7-.5-4.7-.8-9.5-.8-14.3z" clip-path="url(#SVGID_2_)" fill="#932f84"/><path d="M130.3 134.9c0-38.2 18.8-72.8 49.1-97.8 15.2-12.5 33.2-22.6 53.3-29.6 10-3.5 20.6-6.2 31.5-8.1h-2.4V156H133.7v6.8c-2.2-9-3.4-18.3-3.4-27.9z" clip-path="url(#SVGID_2_)" fill="#943085"/><path d="M132.2 134.9c0-37.8 18.6-72 48.6-96.7 15-12.4 32.9-22.4 52.7-29.3 9.9-3.5 20.3-6.1 31.1-8h-2.7V156H135.6v6.5c-2.2-8.9-3.4-18.1-3.4-27.6z" clip-path="url(#SVGID_2_)" fill="#953185"/><path d="M134.1 134.9c0-37.3 18.3-71.2 48-95.6 14.8-12.2 32.5-22.1 52.1-29 9.8-3.4 20.1-6.1 30.8-7.9h-3.1V156H137.4v6.2c-2.2-8.8-3.3-17.9-3.3-27.3z" clip-path="url(#SVGID_2_)" fill="#963285"/><path d="M135.9 134.9c0-36.9 18.1-70.3 47.5-94.5 14.7-12.1 32.1-21.9 51.5-28.7 9.7-3.4 19.9-6 30.4-7.8h-3.5v152H139.2v5.9c-2.1-8.6-3.3-17.7-3.3-26.9z" clip-path="url(#SVGID_2_)" fill="#973385"/><path d="M137.8 134.9c0-36.5 17.9-69.5 46.9-93.5 14.5-12 31.8-21.6 50.9-28.3 9.6-3.3 19.6-5.9 30.1-7.7h-3.9V156H141v5.6c-2.1-8.6-3.2-17.6-3.2-26.7z" clip-path="url(#SVGID_2_)" fill="#983485"/><path d="M139.7 134.9c0-36.1 17.7-68.7 46.4-92.4 14.3-11.8 31.4-21.4 50.3-28 9.5-3.3 19.4-5.9 29.7-7.6h-4.2v149h-119v5.3c-2.1-8.5-3.2-17.3-3.2-26.3z" clip-path="url(#SVGID_2_)" fill="#993585"/><path d="M141.5 134.9c0-35.6 17.5-67.9 45.8-91.3 14.2-11.7 31-21.1 49.7-27.7 9.4-3.3 19.2-5.8 29.4-7.5h-4.6V156H144.7v5c-2.1-8.5-3.2-17.2-3.2-26.1z" clip-path="url(#SVGID_2_)" fill="#9a3585"/><path d="M143.4 134.9c0-35.2 17.3-67.1 45.3-90.2 14-11.5 30.6-20.9 49.1-27.3 9.2-3.2 19-5.7 29-7.4h-5v146H146.5v4.6c-2-8.3-3.1-16.9-3.1-25.7z" clip-path="url(#SVGID_2_)" fill="#9b3685"/><path d="M145.2 134.9c0-34.8 17.1-66.3 44.7-89.1 13.8-11.4 30.3-20.6 48.5-27 9.1-3.2 18.7-5.7 28.7-7.3h-5.4V156H148.3v4.3c-2-8.2-3.1-16.7-3.1-25.4z" clip-path="url(#SVGID_2_)" fill="#9c3786"/><path d="M147.1 134.9c0-34.4 16.9-65.5 44.2-88 13.7-11.3 29.9-20.4 48-26.7 9-3.1 18.5-5.6 28.3-7.3h-5.8v143H150.2v4c-2-8-3.1-16.4-3.1-25z" clip-path="url(#SVGID_2_)" fill="#9d3886"/><path d="M149 134.9c0-33.9 16.7-64.7 43.6-86.9 13.5-11.1 29.5-20.1 47.4-26.3 8.9-3.1 18.3-5.5 28-7.2h-6.1V156H152v3.7c-2-8-3-16.3-3-24.8z" clip-path="url(#SVGID_2_)" fill="#9e3986"/><path d="M150.8 134.9c0-33.5 16.5-63.9 43.1-85.8 13.3-11 29.2-19.9 46.8-26 8.8-3.1 18-5.5 27.6-7.1h-6.5v140h-108v3.4c-1.9-7.9-3-16.1-3-24.5z" clip-path="url(#SVGID_2_)" fill="#9f3a86"/><path d="M152.7 134.9c0-33.1 16.3-63.1 42.6-84.8 13.1-10.8 28.8-19.6 46.2-25.7 8.7-3 17.8-5.4 27.3-7h-6.9V156H155.6v3.1c-1.9-7.8-2.9-15.9-2.9-24.2z" clip-path="url(#SVGID_2_)" fill="#a03b86"/><path d="M154.6 134.9c0-32.7 16.1-62.3 42-83.7 13-10.7 28.4-19.4 45.6-25.4 4.3-1.5 8.7-2.8 13.2-4 2.2-.6 4.5-1.1 6.8-1.6h-.3V156H157.5v2.8c-1.9-7.7-2.9-15.7-2.9-23.9z" clip-path="url(#SVGID_2_)" fill="#a13c86"/><path d="M156.4 134.9c0-32.3 15.8-61.5 41.5-82.6 12.8-10.6 28.1-19.1 45-25 4.2-1.5 8.6-2.8 13-3.9 2.2-.6 4.5-1.1 6.7-1.6h-.8V156H159.3v2.5c-1.9-7.6-2.9-15.5-2.9-23.6z" clip-path="url(#SVGID_2_)" fill="#a23d87"/><path d="M158.3 134.9c0-31.8 15.6-60.6 40.9-81.5 12.6-10.4 27.7-18.9 44.4-24.7 4.2-1.5 8.5-2.8 12.8-3.9 2.2-.6 4.4-1.1 6.6-1.6h-1.2V156H161.1v2.2c-1.8-7.6-2.8-15.3-2.8-23.3z" clip-path="url(#SVGID_2_)" fill="#a33e87"/><path d="M160.1 134.9c0-31.4 15.4-59.8 40.4-80.4 12.5-10.3 27.3-18.6 43.8-24.4 4.1-1.4 8.3-2.7 12.7-3.8 2.2-.6 4.3-1.1 6.5-1.5h-1.7V156h-98.9v1.9c-1.8-7.5-2.8-15.1-2.8-23z" clip-path="url(#SVGID_2_)" fill="#a43f87"/><path d="M162 134.9c0-31 15.2-59 39.8-79.3 12.3-10.2 27-18.4 43.2-24 4.1-1.4 8.2-2.7 12.5-3.8 2.1-.5 4.3-1.1 6.5-1.5h-2.2V156h-97.1v1.5c-1.7-7.3-2.7-14.8-2.7-22.6z" clip-path="url(#SVGID_2_)" fill="#a54087"/><path d="M163.9 134.9c0-30.6 15-58.2 39.3-78.2 12.1-10 26.6-18.1 42.6-23.7 4-1.4 8.1-2.6 12.3-3.7 2.1-.5 4.2-1 6.4-1.5h-2.6V156h-95.2v1.2c-1.9-7.2-2.8-14.6-2.8-22.3z" clip-path="url(#SVGID_2_)" fill="#a64087"/><path d="M165.7 134.9c0-30.1 14.8-57.4 38.7-77.2 12-9.9 26.2-17.9 42-23.4 4-1.4 8-2.6 12.2-3.7l6.3-1.5h-3.1V156h-93.4v.9c-1.7-7.1-2.7-14.4-2.7-22z" clip-path="url(#SVGID_2_)" fill="#a74187"/><path d="M167.6 134.9c0-29.7 14.6-56.6 38.2-76.1 11.8-9.7 25.8-17.6 41.4-23.1 3.9-1.4 7.9-2.6 12-3.6 2-.5 4.1-1 6.2-1.4h-3.6V156h-91.6v.6c-1.7-7-2.6-14.3-2.6-21.7z" clip-path="url(#SVGID_2_)" fill="#a84287"/><path d="M169.5 134.9c0-29.3 14.4-55.8 37.6-75 11.6-9.6 25.5-17.4 40.9-22.7 3.8-1.3 7.8-2.5 11.8-3.6 2-.5 4-1 6.1-1.4h-4V156h-89.8v.3c-1.7-6.9-2.6-14.1-2.6-21.4z" clip-path="url(#SVGID_2_)" fill="#a94388"/><path d="M171.3 134.9c0-28.9 14.2-55 37.1-73.9 11.5-9.5 25.1-17.1 40.3-22.4 3.8-1.3 7.7-2.5 11.6-3.5 2-.5 4-1 6-1.4h-4.5V156h-86.5v5.1c-.5-1.7-1-3.4-1.4-5.1-1.7-6.8-2.6-13.9-2.6-21.1z" clip-path="url(#SVGID_2_)" fill="#a48"/><path d="M173.2 134.9c0-28.4 14-54.2 36.6-72.8 11.3-9.3 24.7-16.9 39.7-22.1 3.7-1.3 7.6-2.5 11.5-3.5 2-.5 3.9-1 5.9-1.4h-5V156h-84.7v4.7c-.5-1.6-1-3.3-1.4-5-1.7-6.7-2.6-13.7-2.6-20.8z" clip-path="url(#SVGID_2_)" fill="#ab4588"/><path d="M175 134.9c0-28 13.8-53.4 36-71.7 11.1-9.2 24.4-16.6 39.1-21.7 3.7-1.3 7.4-2.4 11.3-3.4 1.9-.5 3.9-.9 5.8-1.4h-5.4V156h-82.9v4.3c-.5-1.6-1-3.3-1.4-4.9-1.6-6.6-2.5-13.5-2.5-20.5z" clip-path="url(#SVGID_2_)" fill="#ac4688"/><path d="M176.9 134.9c0-27.6 13.6-52.6 35.5-70.6 11-9 24-16.4 38.5-21.4 3.6-1.3 7.3-2.4 11.1-3.4h-.2V156h-81.1v3.9c-.5-1.6-.9-3.2-1.4-4.8-1.5-6.6-2.4-13.3-2.4-20.2z" clip-path="url(#SVGID_2_)" fill="#ad4788"/><path d="M178.8 134.9c0-27.2 13.3-51.7 34.9-69.5 10.8-8.9 23.6-16.1 37.9-21.1 3.6-1.2 7.2-2.3 11-3.3h-.7v115h-79.3v3.5c-.5-1.6-.9-3.2-1.3-4.8-1.7-6.4-2.5-13-2.5-19.8z" clip-path="url(#SVGID_2_)" fill="#ae4888"/><path d="M180.6 134.9c0-26.7 13.1-50.9 34.4-68.5 10.6-8.8 23.3-15.8 37.3-20.7 3.5-1.2 7.1-2.3 10.8-3.3h-1.3V156h-77.5v3.1c-.5-1.5-.9-3.1-1.3-4.7-1.5-6.3-2.4-12.8-2.4-19.5z" clip-path="url(#SVGID_2_)" fill="#af4988"/><path d="M182.5 134.9c0-26.3 12.9-50.1 33.8-67.4 10.4-8.6 22.9-15.6 36.7-20.4 3.5-1.2 7-2.3 10.6-3.2h-1.8V156h-75.7v2.7c-.5-1.5-.9-3.1-1.3-4.6-1.5-6.2-2.3-12.6-2.3-19.2z" clip-path="url(#SVGID_2_)" fill="#b04a89"/><path d="M184.4 134.9c0-25.9 12.7-49.3 33.3-66.3 10.3-8.5 22.5-15.3 36.1-20.1 3.4-1.2 6.9-2.2 10.4-3.2h-2.4V156h-72.4v6.8c-1.1-2.9-2-5.9-2.8-9-1.4-6.1-2.2-12.4-2.2-18.9z" clip-path="url(#SVGID_2_)" fill="#b24b89"/><path d="M186.2 134.9c0-25.5 12.5-48.5 32.7-65.2 10.1-8.3 22.2-15.1 35.5-19.8 3.3-1.2 6.8-2.2 10.3-3.1h-2.9V156h-70.6v6.4c-1.1-2.9-2-5.8-2.8-8.8-1.4-6.1-2.2-12.3-2.2-18.7z" clip-path="url(#SVGID_2_)" fill="#b34c89"/><path d="M188.1 134.9c0-25 12.3-47.7 32.2-64.1 9.9-8.2 21.8-14.8 34.9-19.4 3.3-1.1 6.7-2.2 10.1-3h-3.5V156H193v5.9c-1.1-2.8-2-5.7-2.7-8.7-1.4-5.9-2.2-12-2.2-18.3z" clip-path="url(#SVGID_2_)" fill="#b44d89"/><path d="M189.9 134.9c0-24.6 12.1-46.9 31.6-63 9.8-8.1 21.4-14.6 34.3-19.1 3.2-1.1 6.5-2.1 9.9-3h-4V156h-67v5.4c-1.1-2.8-1.9-5.6-2.7-8.5-1.3-5.8-2.1-11.8-2.1-18z" clip-path="url(#SVGID_2_)" fill="#b54e89"/><path d="M191.8 134.9c0-24.2 11.9-46.1 31.1-61.9 9.6-7.9 21-14.3 33.7-18.8 3.2-1.1 6.4-2.1 9.8-2.9h-4.6V156h-65.2v5c-1-2.7-1.9-5.5-2.6-8.4-1.4-5.7-2.2-11.6-2.2-17.7z" clip-path="url(#SVGID_2_)" fill="#b64f89"/><path d="M193.7 134.9c0-23.8 11.7-45.3 30.6-60.9 9.4-7.8 20.7-14.1 33.2-18.4 3.1-1.1 6.3-2.1 9.6-2.9H262V156h-63.5v4.5c-1-2.7-1.9-5.4-2.6-8.2-1.5-5.6-2.2-11.4-2.2-17.4z" clip-path="url(#SVGID_2_)" fill="#b7508a"/><path d="M195.5 134.9c0-23.3 11.5-44.5 30-59.8 9.3-7.6 20.3-13.8 32.6-18.1 3.1-1.1 6.2-2 9.4-2.8h-5.7V156h-61.7v4.1c-1-2.6-1.8-5.3-2.5-8.1-1.3-5.5-2.1-11.2-2.1-17.1z" clip-path="url(#SVGID_2_)" fill="#b8518a"/><path d="M197.4 134.9c0-22.9 11.3-43.7 29.5-58.7 9.1-7.5 19.9-13.6 32-17.8 3-1 6.1-2 9.2-2.8h-6.2V156H202v3.6c-1-2.6-1.8-5.3-2.5-8-1.4-5.4-2.1-11-2.1-16.7z" clip-path="url(#SVGID_2_)" fill="#b9528a"/><path d="M199.3 134.9c0-22.5 11-42.9 28.9-57.6 8.9-7.4 19.6-13.3 31.4-17.5 3-1 6-1.9 9.1-2.7h-6.8V156h-58.1v3.2c-1-2.6-1.8-5.2-2.4-7.8-1.5-5.4-2.1-10.9-2.1-16.5z" clip-path="url(#SVGID_2_)" fill="#ba538a"/><path d="M201.1 134.9c0-22.1 10.8-42 28.4-56.5 8.8-7.2 19.2-13.1 30.8-17.1 1.4-.5 2.9-1 4.4-1.4h-2.9V156h-56.3v2.7c-.9-2.5-1.7-5.1-2.4-7.7-1.3-5.2-2-10.6-2-16.1z" clip-path="url(#SVGID_2_)" fill="#bb548a"/><path d="M203 134.9c0-21.6 10.6-41.2 27.8-55.4 8.6-7.1 18.8-12.8 30.2-16.8 1.4-.5 2.9-1 4.3-1.4h-3.5V156h-54.6v2.2c-.9-2.5-1.7-5-2.3-7.5-1.3-5.1-1.9-10.4-1.9-15.8z" clip-path="url(#SVGID_2_)" fill="#bd558a"/><path d="M204.8 134.9c0-21.2 10.4-40.4 27.3-54.3 8.4-7 18.5-12.6 29.6-16.5 1.4-.5 2.8-.9 4.2-1.4h-4.1V156H209v1.8c-.9-2.4-1.7-4.9-2.3-7.4-1.2-5-1.9-10.2-1.9-15.5z" clip-path="url(#SVGID_2_)" fill="#be568b"/><path d="M206.7 134.9c0-20.8 10.2-39.6 26.7-53.2 8.3-6.8 18.1-12.3 29-16.1h-.6V156h-51v1.3c-.9-2.4-1.6-4.8-2.2-7.2-1.3-4.9-1.9-10-1.9-15.2z" clip-path="url(#SVGID_2_)" fill="#bf578b"/><path d="M208.6 134.9c0-20.4 10-38.8 26.2-52.2 8.1-6.7 17.7-12.1 28.4-15.8h-1.4v89h-49.2v.9c-.9-2.3-1.6-4.7-2.2-7.1-1.2-4.7-1.8-9.7-1.8-14.8z" clip-path="url(#SVGID_2_)" fill="#c0588b"/><path d="M210.4 134.9c0-19.9 9.8-38 25.6-51.1 7.9-6.5 17.4-11.8 27.8-15.5h-2.1V156h-47.5v.4c-.9-2.3-1.6-4.6-2.2-6.9-1-4.7-1.6-9.6-1.6-14.6z" clip-path="url(#SVGID_2_)" fill="#c1598b"/><path d="M212.3 134.9c0-19.5 9.6-37.2 25.1-50 7.8-6.4 17-11.6 27.2-15.1h-2.8V156H219v6.5c-4.3-8.5-6.7-17.8-6.7-27.6z" clip-path="url(#SVGID_2_)" fill="#c25a8b"/><path d="M214.2 134.9c0-19.1 9.4-36.4 24.6-48.9 7.6-6.3 16.6-11.3 26.6-14.8h-3.5V156h-41.1v5.9c-4.3-8.3-6.6-17.4-6.6-27z" clip-path="url(#SVGID_2_)" fill="#c35b8b"/><path d="M216 134.9c0-18.7 9.2-35.6 24-47.8 7.4-6.1 16.2-11.1 26.1-14.5h-4.3V156h-39.4v5.3c-4.1-8.2-6.4-17-6.4-26.4z" clip-path="url(#SVGID_2_)" fill="#c45c8c"/><path d="M217.9 134.9c0-18.2 9-34.8 23.5-46.7 7.2-6 15.9-10.8 25.5-14.2h-5v82h-37.6v4.7c-4.2-8-6.4-16.7-6.4-25.8z" clip-path="url(#SVGID_2_)" fill="#c65d8c"/><path d="M219.7 134.9c0-17.8 8.8-34 22.9-45.6 7.1-5.8 15.5-10.6 24.9-13.8h-5.7V156h-35.9v4.1c-4-7.8-6.2-16.3-6.2-25.2z" clip-path="url(#SVGID_2_)" fill="#c75e8c"/><path d="M221.6 134.9c0-17.4 8.5-33.2 22.4-44.6 6.9-5.7 15.1-10.3 24.3-13.5h-6.4V156h-34.2v3.5c-4-7.6-6.1-15.9-6.1-24.6z" clip-path="url(#SVGID_2_)" fill="#c85f8c"/><path d="M223.5 134.9c0-17 8.3-32.3 21.8-43.5 3.4-2.8 7.1-5.3 11-7.5 2-1.1 4-2.1 6.1-3.1h-.6V156h-32.5v2.9c-3.7-7.4-5.8-15.5-5.8-24z" clip-path="url(#SVGID_2_)" fill="#c9608c"/><path d="M225.3 134.9c0-16.6 8.1-31.5 21.3-42.4 3.3-2.7 6.9-5.2 10.8-7.3 1.9-1.1 3.9-2.1 6-3h-1.5V156H231v2.3c-3.6-7.2-5.7-15.1-5.7-23.4z" clip-path="url(#SVGID_2_)" fill="#ca618c"/><path d="M227.2 134.9c0-16.1 7.9-30.7 20.7-41.3 3.2-2.6 6.7-5 10.5-7.1 1.9-1 3.8-2 5.8-2.9h-2.4V156h-29.1v1.7c-3.5-7-5.5-14.7-5.5-22.8z" clip-path="url(#SVGID_2_)" fill="#cb628d"/><path d="M229.1 134.9c0-15.7 7.7-29.9 20.2-40.2 3.1-2.6 6.5-4.9 10.2-6.9 1.8-1 3.7-2 5.7-2.8h-3.3v71h-27.3v1.1c-3.6-6.9-5.5-14.3-5.5-22.2z" clip-path="url(#SVGID_2_)" fill="#cc638d"/><path d="M230.9 134.9c0-15.3 7.5-29.1 19.6-39.1 3-2.5 6.4-4.8 9.9-6.8 1.8-1 3.6-1.9 5.5-2.8h-4.2V156h-25.6v.5c-3.3-6.7-5.2-13.9-5.2-21.6z" clip-path="url(#SVGID_2_)" fill="#ce648d"/><path d="M232.8 134.9c0-14.9 7.3-28.3 19.1-38 2.9-2.4 6.2-4.6 9.6-6.6 1.7-1 3.5-1.9 5.4-2.7h-5.1V156h-21.2v4.6c-1-1.5-1.9-3.1-2.7-4.7-3.3-6.5-5.1-13.6-5.1-21z" clip-path="url(#SVGID_2_)" fill="#cf668d"/><path d="M234.7 134.9c0-14.4 7.1-27.5 18.5-36.9 2.9-2.4 6-4.5 9.4-6.4h-.7V156h-19.5v3.8c-1-1.5-1.9-3-2.7-4.6-3.3-6.2-5-13.1-5-20.3z" clip-path="url(#SVGID_2_)" fill="#d0678d"/><path d="M236.5 134.9c0-14 6.9-26.7 18-35.9 2.8-2.3 5.8-4.4 9.1-6.2h-1.8V156h-17.9v3.1c-.9-1.4-1.8-2.9-2.6-4.4-3.1-6.1-4.8-12.8-4.8-19.8z" clip-path="url(#SVGID_2_)" fill="#d1688d"/><path d="M238.4 134.9c0-13.6 6.7-25.9 17.5-34.8 2.7-2.2 5.7-4.2 8.8-6h-2.8V156h-13.3v6.4c-2.1-2.6-4-5.4-5.5-8.4-3.1-5.8-4.7-12.3-4.7-19.1z" clip-path="url(#SVGID_2_)" fill="#d2698e"/><path d="M240.2 134.9c0-13.2 6.5-25.1 16.9-33.7 2.6-2.2 5.5-4.1 8.5-5.8h-3.9V156H250v5.6c-2.1-2.5-3.9-5.2-5.3-8.1-2.8-5.7-4.5-12-4.5-18.6z" clip-path="url(#SVGID_2_)" fill="#d36a8e"/><path d="M242.1 134.9c0-12.7 6.3-24.3 16.4-32.6 2.5-2.1 5.3-4 8.3-5.6h-4.9V156h-10.2v4.7c-2-2.5-3.7-5.1-5.2-7.8-2.8-5.6-4.4-11.6-4.4-18z" clip-path="url(#SVGID_2_)" fill="#d56b8e"/><path d="M244 134.9c0-12.3 6-23.4 15.8-31.5 2.4-2 5.1-3.8 8-5.4h-6v58h-8.6v3.9c-1.9-2.4-3.6-4.9-5-7.6-2.7-5.4-4.2-11.2-4.2-17.4z" clip-path="url(#SVGID_2_)" fill="#d66c8e"/><path d="M245.8 134.9c0-11.9 5.8-22.6 15.3-30.4 2.4-1.9 4.9-3.7 7.7-5.3h-7V156h-7.1v3c-1.9-2.3-3.5-4.7-4.8-7.3-2.6-5.2-4.1-10.8-4.1-16.8z" clip-path="url(#SVGID_2_)" fill="#d76d8e"/><path d="M247.7 134.9c0-11.5 5.6-21.8 14.7-29.3h-.6V156h-5.5v2.1c-1.8-2.2-3.4-4.6-4.6-7-2.6-5-4-10.5-4-16.2z" clip-path="url(#SVGID_2_)" fill="#d86e8e"/><path d="M249.6 134.9c0-11 5.4-21 14.2-28.3h-1.9V156h-4v1.3c-1.7-2.1-3.2-4.4-4.5-6.8-2.5-4.8-3.8-10.1-3.8-15.6z" clip-path="url(#SVGID_2_)" fill="#d96f8f"/><path d="M251.4 134.9c0-10.6 5.2-20.2 13.6-27.2h-3.2V156l3.2 6.1c-8.4-7-13.6-16.6-13.6-27.2z" clip-path="url(#SVGID_2_)" fill="#db708f"/><path d="M253.3 134.9c0-10.2 5-19.4 13.1-26.1h-4.5V156l4.5 5c-8.1-6.7-13.1-15.9-13.1-26.1z" clip-path="url(#SVGID_2_)" fill="#dc718f"/><path d="M255.1 134.9c0-9.8 4.8-18.6 12.5-25h-5.9V156l5.9 3.9c-7.7-6.4-12.5-15.2-12.5-25z" clip-path="url(#SVGID_2_)" fill="#dd728f"/><path d="M257 134.9c0-4.7 1.1-9.1 3.2-13.2 1-2 2.3-3.9 3.8-5.7h-2.2v37.8h2.2c-1.5-1.8-2.7-3.7-3.8-5.7-2.1-4.1-3.2-8.5-3.2-13.2z" clip-path="url(#SVGID_2_)" fill="#de748f"/><path d="M258.9 134.9c0-4.5 1.1-8.7 3.1-12.6h-.1v25.1h.1c-2-3.8-3.1-8-3.1-12.5z" clip-path="url(#SVGID_2_)" fill="#df758f"/><path d="M260.7 134.9c0-4.2 1-8.3 2.9-12h-1.8v23.9h1.8c-1.8-3.6-2.9-7.6-2.9-11.9z" clip-path="url(#SVGID_2_)" fill="#e17690"/><path d="M261.8 134.9v-29.2 29.2z" clip-path="url(#SVGID_2_)" fill="#e27790"/><path d="M261.8 134.9v-27.7 27.7z" clip-path="url(#SVGID_2_)" fill="#e37890"/><path d="M261.8 134.9v-26.1 26.1z" clip-path="url(#SVGID_2_)" fill="#e47990"/><path d="M261.8 134.9v-24.6 24.6z" clip-path="url(#SVGID_2_)" fill="#e57a90"/><path d="M261.8 134.9v-23.1 23.1z" clip-path="url(#SVGID_2_)" fill="#e77b90"/><path d="M261.8 134.9v-21.5 21.5z" clip-path="url(#SVGID_2_)" fill="#e87c91"/><path d="M261.8 134.9v-20 20z" clip-path="url(#SVGID_2_)" fill="#e97d91"/><path d="M261.8 134.9v-18.4 18.4z" clip-path="url(#SVGID_2_)" fill="#ea7f91"/><path d="M261.8 134.9V118v16.9z" clip-path="url(#SVGID_2_)" fill="#ec8091"/><path d="M261.8 134.9v-15.4 15.4z" clip-path="url(#SVGID_2_)" fill="#ed8191"/><path d="M261.8 134.9v-13.8 13.8z" clip-path="url(#SVGID_2_)" fill="#ee8292"/><path d="M261.8 134.9v-12.3 12.3z" clip-path="url(#SVGID_2_)" fill="#ef8392"/><path d="M261.8 134.9v-10.8 10.8z" clip-path="url(#SVGID_2_)" fill="#f18492"/><path d="M261.8 134.9v-9.2 9.2z" clip-path="url(#SVGID_2_)" fill="#f28592"/><path d="M261.8 134.9v-7.7 7.7z" clip-path="url(#SVGID_2_)" fill="#f38692"/><path d="M261.8 134.9v-6.1 6.1z" clip-path="url(#SVGID_2_)" fill="#f48892"/><path d="M261.8 134.9v-4.6 4.6z" clip-path="url(#SVGID_2_)" fill="#f58993"/><path d="M261.8 134.9v-3.1 3.1z" clip-path="url(#SVGID_2_)" fill="#f78a93"/><path d="M261.8 134.9v-1.5 1.5z" clip-path="url(#SVGID_2_)" fill="#f88b93"/><linearGradient id="SVGID_3_" gradientUnits="userSpaceOnUse" x1="-163.504" y1="252.211" x2="-401.106" y2="220.905" gradientTransform="matrix(.587 .5044 -1.1918 .5778 551.322 -1.41)"><stop offset="0" stop-color="#fcba9d"/><stop offset=".563" stop-color="#ee8594"/><stop offset="1" stop-color="#e4608d"/></linearGradient><path fill="url(#SVGID_3_)" d="M260.8 0L64.5 95.2 0 57.9z"/><linearGradient id="SVGID_4_" gradientUnits="userSpaceOnUse" x1="712.711" y1="123.504" x2="842.792" y2="104.546" gradientTransform="matrix(-.8737 -.3389 -1.0008 .6881 979.288 246.173)"><stop offset="0" stop-color="#fcba9d"/><stop offset=".563" stop-color="#ee8594"/><stop offset="1" stop-color="#e4608d"/></linearGradient><path fill="url(#SVGID_4_)" d="M260.8 0L96 113.3l64.5 37.3z"/><linearGradient id="SVGID_5_" gradientUnits="userSpaceOnUse" x1="42.998" y1="176.582" x2="-138.65" y2="100.991" gradientTransform="matrix(.866 .5 -.866 .5 334.592 35.455)"><stop offset="0" stop-color="#f88b93"/><stop offset=".206" stop-color="#d76d8e"/><stop offset=".573" stop-color="#a23d87"/><stop offset=".849" stop-color="#811f82"/><stop offset="1" stop-color="#751480"/></linearGradient><path fill="url(#SVGID_5_)" d="M96 113.3L260.8 0 64.5 95.2 80.2 155z"/><path fill="#fcc29f" d="M61.6 93.5L260.8 0 64.5 95.2z"/><path fill="#fba999" d="M96 113.3L260.8 0 98.5 114.8z"/></svg>